mtllib 8-10.mtl
o building_1
usemtl material_R
v 1328.0000 -0.0000 0.0000
v 1240.0000 -0.0000 0.0000
v 1239.0000 -113.0000 0.0000
v 1244.0000 -113.0000 0.0000
v 1242.0000 -2.0000 0.0000
v 1328.0000 -0.0000 193.0000
v 1240.0000 -0.0000 193.0000
v 1239.0000 -113.0000 193.0000
v 1244.0000 -113.0000 193.0000
v 1242.0000 -2.0000 193.0000
f 5 1 2
f 10 7 6
f 2 3 5
f 7 10 8
f 5 3 4
f 10 9 8
f 1 2 7
f 1 7 6
f 2 3 8
f 2 8 7
f 3 4 9
f 3 9 8
f 4 5 10
f 4 10 9
f 5 1 6
f 5 6 10
o building_2
usemtl material_B
v 1389.0000 -0.0000 0.0000
v 1672.0000 -1.0000 0.0000
v 1673.0000 -6.0000 0.0000
v 1392.0000 -9.0000 0.0000
v 1384.0000 -11.0000 0.0000
v 1383.0000 -20.0000 0.0000
v 1415.0000 -116.0000 0.0000
v 1430.0000 -130.0000 0.0000
v 1432.0000 -270.0000 0.0000
v 1448.0000 -295.0000 0.0000
v 1614.0000 -295.0000 0.0000
v 1630.0000 -289.0000 0.0000
v 1712.0000 -288.0000 0.0000
v 1698.0000 -61.0000 0.0000
v 1703.0000 -53.0000 0.0000
v 1694.0000 -14.0000 0.0000
v 1678.0000 -5.0000 0.0000
v 1690.0000 -0.0000 0.0000
v 1389.0000 -0.0000 85.0000
v 1672.0000 -1.0000 85.0000
v 1673.0000 -6.0000 85.0000
v 1392.0000 -9.0000 85.0000
v 1384.0000 -11.0000 85.0000
v 1383.0000 -20.0000 85.0000
v 1415.0000 -116.0000 85.0000
v 1430.0000 -130.0000 85.0000
v 1432.0000 -270.0000 85.0000
v 1448.0000 -295.0000 85.0000
v 1614.0000 -295.0000 85.0000
v 1630.0000 -289.0000 85.0000
v 1712.0000 -288.0000 85.0000
v 1698.0000 -61.0000 85.0000
v 1703.0000 -53.0000 85.0000
v 1694.0000 -14.0000 85.0000
v 1678.0000 -5.0000 85.0000
v 1690.0000 -0.0000 85.0000
f 17 18 14
f 35 32 36
f 14 16 17
f 32 35 34
f 15 16 14
f 33 32 34
f 22 23 24
f 40 42 41
f 24 18 22
f 42 40 36
f 13 18 24
f 31 42 36
f 14 18 12
f 32 30 36
f 12 18 13
f 30 31 36
f 12 28 11
f 30 29 46
f 27 28 12
f 45 30 46
f 12 13 27
f 30 45 31
f 13 24 26
f 31 44 42
f 26 24 25
f 44 43 42
f 27 13 26
f 45 44 31
f 19 20 21
f 37 39 38
f 22 18 21
f 40 39 36
f 21 18 19
f 39 37 36
f 11 12 30
f 11 30 29
f 12 13 31
f 12 31 30
f 13 14 32
f 13 32 31
f 14 15 33
f 14 33 32
f 15 16 34
f 15 34 33
f 16 17 35
f 16 35 34
f 17 18 36
f 17 36 35
f 18 19 37
f 18 37 36
f 19 20 38
f 19 38 37
f 20 21 39
f 20 39 38
f 21 22 40
f 21 40 39
f 22 23 41
f 22 41 40
f 23 24 42
f 23 42 41
f 24 25 43
f 24 43 42
f 25 26 44
f 25 44 43
f 26 27 45
f 26 45 44
f 27 28 46
f 27 46 45
f 28 11 29
f 28 29 46
o building_3
usemtl material_R
v 1758.0000 -0.0000 0.0000
v 1837.0000 -4.0000 0.0000
v 1767.0000 -9.0000 0.0000
v 1770.0000 -95.0000 0.0000
v 1845.0000 -96.0000 0.0000
v 1855.0000 -90.0000 0.0000
v 1856.0000 -45.0000 0.0000
v 1848.0000 -2.0000 0.0000
v 1864.0000 -0.0000 0.0000
v 1758.0000 -0.0000 42.0000
v 1837.0000 -4.0000 42.0000
v 1767.0000 -9.0000 42.0000
v 1770.0000 -95.0000 42.0000
v 1845.0000 -96.0000 42.0000
v 1855.0000 -90.0000 42.0000
v 1856.0000 -45.0000 42.0000
v 1848.0000 -2.0000 42.0000
v 1864.0000 -0.0000 42.0000
f 55 47 54
f 64 63 56
f 54 47 48
f 63 57 56
f 53 51 52
f 62 61 60
f 50 51 53
f 59 62 60
f 54 48 53
f 63 62 57
f 49 50 53
f 58 62 59
f 53 48 49
f 62 58 57
f 47 48 57
f 47 57 56
f 48 49 58
f 48 58 57
f 49 50 59
f 49 59 58
f 50 51 60
f 50 60 59
f 51 52 61
f 51 61 60
f 52 53 62
f 52 62 61
f 53 54 63
f 53 63 62
f 54 55 64
f 54 64 63
f 55 47 56
f 55 56 64
o building_4
usemtl material_B
v 1895.0000 -0.0000 0.0000
v 1902.0000 -2.0000 0.0000
v 1903.0000 -121.0000 0.0000
v 1909.0000 -134.0000 0.0000
v 1911.0000 -252.0000 0.0000
v 1918.0000 -280.0000 0.0000
v 1930.0000 -288.0000 0.0000
v 2045.0000 -288.0000 0.0000
v 2047.0000 -295.0000 0.0000
v 2047.0000 -0.0000 0.0000
v 1895.0000 -0.0000 127.0000
v 1902.0000 -2.0000 127.0000
v 1903.0000 -121.0000 127.0000
v 1909.0000 -134.0000 127.0000
v 1911.0000 -252.0000 127.0000
v 1918.0000 -280.0000 127.0000
v 1930.0000 -288.0000 127.0000
v 2045.0000 -288.0000 127.0000
v 2047.0000 -295.0000 127.0000
v 2047.0000 -0.0000 127.0000
f 74 65 66
f 84 76 75
f 72 73 74
f 82 84 83
f 72 74 68
f 82 78 84
f 68 74 67
f 78 77 84
f 67 74 66
f 77 76 84
f 69 70 71
f 79 81 80
f 72 68 69
f 82 79 78
f 71 72 69
f 81 79 82
f 65 66 76
f 65 76 75
f 66 67 77
f 66 77 76
f 67 68 78
f 67 78 77
f 68 69 79
f 68 79 78
f 69 70 80
f 69 80 79
f 70 71 81
f 70 81 80
f 71 72 82
f 71 82 81
f 72 73 83
f 72 83 82
f 73 74 84
f 73 84 83
f 74 65 75
f 74 75 84
o building_5
usemtl material_R
v 1256.0000 -9.0000 0.0000
v 1256.0000 -113.0000 0.0000
v 1269.0000 -120.0000 0.0000
v 1325.0000 -119.0000 0.0000
v 1328.0000 -11.0000 0.0000
v 1256.0000 -9.0000 85.0000
v 1256.0000 -113.0000 85.0000
v 1269.0000 -120.0000 85.0000
v 1325.0000 -119.0000 85.0000
v 1328.0000 -11.0000 85.0000
f 88 89 87
f 93 92 94
f 89 85 86
f 94 91 90
f 87 89 86
f 92 91 94
f 85 86 91
f 85 91 90
f 86 87 92
f 86 92 91
f 87 88 93
f 87 93 92
f 88 89 94
f 88 94 93
f 89 85 90
f 89 90 94
o building_6
usemtl material_B
v 936.0000 -30.0000 0.0000
v 996.0000 -167.0000 0.0000
v 1078.0000 -157.0000 0.0000
v 1014.0000 -13.0000 0.0000
v 979.0000 -15.0000 0.0000
v 936.0000 -30.0000 85.0000
v 996.0000 -167.0000 85.0000
v 1078.0000 -157.0000 85.0000
v 1014.0000 -13.0000 85.0000
v 979.0000 -15.0000 85.0000
f 96 97 98
f 101 103 102
f 99 95 96
f 104 101 100
f 96 98 99
f 101 104 103
f 95 96 101
f 95 101 100
f 96 97 102
f 96 102 101
f 97 98 103
f 97 103 102
f 98 99 104
f 98 104 103
f 99 95 100
f 99 100 104
o building_7
usemtl material_B
v 535.0000 -55.0000 0.0000
v 535.0000 -67.0000 0.0000
v 588.0000 -180.0000 0.0000
v 643.0000 -175.0000 0.0000
v 680.0000 -164.0000 0.0000
v 680.0000 -149.0000 0.0000
v 631.0000 -39.0000 0.0000
v 601.0000 -38.0000 0.0000
v 535.0000 -55.0000 42.0000
v 535.0000 -67.0000 42.0000
v 588.0000 -180.0000 42.0000
v 643.0000 -175.0000 42.0000
v 680.0000 -164.0000 42.0000
v 680.0000 -149.0000 42.0000
v 631.0000 -39.0000 42.0000
v 601.0000 -38.0000 42.0000
f 112 105 106
f 120 114 113
f 106 107 112
f 114 120 115
f 112 107 108
f 120 116 115
f 109 110 108
f 117 116 118
f 108 110 111
f 116 119 118
f 111 112 108
f 119 116 120
f 105 106 114
f 105 114 113
f 106 107 115
f 106 115 114
f 107 108 116
f 107 116 115
f 108 109 117
f 108 117 116
f 109 110 118
f 109 118 117
f 110 111 119
f 110 119 118
f 111 112 120
f 111 120 119
f 112 105 113
f 112 113 120
o building_8
usemtl material_G
v 325.0000 -127.0000 0.0000
v 322.0000 -167.0000 0.0000
v 328.0000 -188.0000 0.0000
v 370.0000 -185.0000 0.0000
v 390.0000 -192.0000 0.0000
v 488.0000 -192.0000 0.0000
v 497.0000 -185.0000 0.0000
v 504.0000 -133.0000 0.0000
v 496.0000 -121.0000 0.0000
v 330.0000 -120.0000 0.0000
v 325.0000 -127.0000 42.0000
v 322.0000 -167.0000 42.0000
v 328.0000 -188.0000 42.0000
v 370.0000 -185.0000 42.0000
v 390.0000 -192.0000 42.0000
v 488.0000 -192.0000 42.0000
v 497.0000 -185.0000 42.0000
v 504.0000 -133.0000 42.0000
v 496.0000 -121.0000 42.0000
v 330.0000 -120.0000 42.0000
f 125 130 124
f 135 134 140
f 121 122 124
f 131 134 132
f 124 130 121
f 134 131 140
f 129 130 125
f 139 135 140
f 126 128 129
f 136 139 138
f 129 125 126
f 139 136 135
f 124 122 123
f 134 133 132
f 127 128 126
f 137 136 138
f 121 122 132
f 121 132 131
f 122 123 133
f 122 133 132
f 123 124 134
f 123 134 133
f 124 125 135
f 124 135 134
f 125 126 136
f 125 136 135
f 126 127 137
f 126 137 136
f 127 128 138
f 127 138 137
f 128 129 139
f 128 139 138
f 129 130 140
f 129 140 139
f 130 121 131
f 130 131 140
o building_9
usemtl material_G
v 287.0000 -183.0000 0.0000
v 271.0000 -136.0000 0.0000
v 259.0000 -133.0000 0.0000
v 14.0000 -167.0000 0.0000
v 0.0000 -161.0000 0.0000
v 0.0000 -197.0000 0.0000
v 6.0000 -183.0000 0.0000
v 21.0000 -223.0000 0.0000
v 50.0000 -231.0000 0.0000
v 237.0000 -201.0000 0.0000
v 267.0000 -201.0000 0.0000
v 286.0000 -191.0000 0.0000
v 287.0000 -183.0000 255.0000
v 271.0000 -136.0000 255.0000
v 259.0000 -133.0000 255.0000
v 14.0000 -167.0000 255.0000
v 0.0000 -161.0000 255.0000
v 0.0000 -197.0000 255.0000
v 6.0000 -183.0000 255.0000
v 21.0000 -223.0000 255.0000
v 50.0000 -231.0000 255.0000
v 237.0000 -201.0000 255.0000
v 267.0000 -201.0000 255.0000
v 286.0000 -191.0000 255.0000
f 143 141 142
f 155 154 153
f 145 146 147
f 157 159 158
f 150 143 144
f 162 156 155
f 144 149 150
f 156 162 161
f 144 145 147
f 156 159 157
f 148 149 144
f 160 156 161
f 147 148 144
f 159 156 160
f 151 141 143
f 163 155 153
f 151 143 150
f 163 162 155
f 152 141 151
f 164 163 153
f 141 142 154
f 141 154 153
f 142 143 155
f 142 155 154
f 143 144 156
f 143 156 155
f 144 145 157
f 144 157 156
f 145 146 158
f 145 158 157
f 146 147 159
f 146 159 158
f 147 148 160
f 147 160 159
f 148 149 161
f 148 161 160
f 149 150 162
f 149 162 161
f 150 151 163
f 150 163 162
f 151 152 164
f 151 164 163
f 152 141 153
f 152 153 164
o building_10
usemtl material_B
v 1095.0000 -211.0000 0.0000
v 1084.0000 -193.0000 0.0000
v 1061.0000 -192.0000 0.0000
v 1033.0000 -199.0000 0.0000
v 1031.0000 -221.0000 0.0000
v 1042.0000 -226.0000 0.0000
v 1077.0000 -225.0000 0.0000
v 1095.0000 -211.0000 34.0000
v 1084.0000 -193.0000 34.0000
v 1061.0000 -192.0000 34.0000
v 1033.0000 -199.0000 34.0000
v 1031.0000 -221.0000 34.0000
v 1042.0000 -226.0000 34.0000
v 1077.0000 -225.0000 34.0000
f 171 165 166
f 178 173 172
f 166 167 171
f 173 178 174
f 171 167 170
f 178 177 174
f 168 169 170
f 175 177 176
f 170 167 168
f 177 175 174
f 165 166 173
f 165 173 172
f 166 167 174
f 166 174 173
f 167 168 175
f 167 175 174
f 168 169 176
f 168 176 175
f 169 170 177
f 169 177 176
f 170 171 178
f 170 178 177
f 171 165 172
f 171 172 178
o building_11
usemtl material_B
v 737.0000 -282.0000 0.0000
v 719.0000 -240.0000 0.0000
v 623.0000 -257.0000 0.0000
v 615.0000 -264.0000 0.0000
v 632.0000 -297.0000 0.0000
v 724.0000 -289.0000 0.0000
v 737.0000 -282.0000 46.0000
v 719.0000 -240.0000 46.0000
v 623.0000 -257.0000 46.0000
v 615.0000 -264.0000 46.0000
v 632.0000 -297.0000 46.0000
v 724.0000 -289.0000 46.0000
f 181 182 183
f 187 189 188
f 183 180 181
f 189 187 186
f 184 179 180
f 190 186 185
f 184 180 183
f 190 189 186
f 179 180 186
f 179 186 185
f 180 181 187
f 180 187 186
f 181 182 188
f 181 188 187
f 182 183 189
f 182 189 188
f 183 184 190
f 183 190 189
f 184 179 185
f 184 185 190
o building_12
usemtl material_B
v 1057.0000 -256.0000 0.0000
v 1073.0000 -313.0000 0.0000
v 1085.0000 -327.0000 0.0000
v 1113.0000 -328.0000 0.0000
v 1143.0000 -320.0000 0.0000
v 1144.0000 -305.0000 0.0000
v 1122.0000 -249.0000 0.0000
v 1085.0000 -248.0000 0.0000
v 1057.0000 -256.0000 42.0000
v 1073.0000 -313.0000 42.0000
v 1085.0000 -327.0000 42.0000
v 1113.0000 -328.0000 42.0000
v 1143.0000 -320.0000 42.0000
v 1144.0000 -305.0000 42.0000
v 1122.0000 -249.0000 42.0000
v 1085.0000 -248.0000 42.0000
f 195 196 194
f 203 202 204
f 194 196 197
f 202 205 204
f 192 194 197
f 200 205 202
f 197 198 192
f 205 200 206
f 193 194 192
f 201 200 202
f 198 191 192
f 206 200 199
f 191 192 200
f 191 200 199
f 192 193 201
f 192 201 200
f 193 194 202
f 193 202 201
f 194 195 203
f 194 203 202
f 195 196 204
f 195 204 203
f 196 197 205
f 196 205 204
f 197 198 206
f 197 206 205
f 198 191 199
f 198 199 206
o building_13
usemtl material_G
v 327.0000 -377.0000 0.0000
v 334.0000 -385.0000 0.0000
v 363.0000 -386.0000 0.0000
v 377.0000 -393.0000 0.0000
v 573.0000 -392.0000 0.0000
v 578.0000 -330.0000 0.0000
v 568.0000 -325.0000 0.0000
v 515.0000 -325.0000 0.0000
v 504.0000 -319.0000 0.0000
v 342.0000 -319.0000 0.0000
v 335.0000 -326.0000 0.0000
v 333.0000 -371.0000 0.0000
v 327.0000 -377.0000 127.0000
v 334.0000 -385.0000 127.0000
v 363.0000 -386.0000 127.0000
v 377.0000 -393.0000 127.0000
v 573.0000 -392.0000 127.0000
v 578.0000 -330.0000 127.0000
v 568.0000 -325.0000 127.0000
v 515.0000 -325.0000 127.0000
v 504.0000 -319.0000 127.0000
v 342.0000 -319.0000 127.0000
v 335.0000 -326.0000 127.0000
v 333.0000 -371.0000 127.0000
f 215 216 210
f 227 222 228
f 211 212 213
f 223 225 224
f 209 216 217
f 221 229 228
f 210 216 209
f 222 221 228
f 214 211 213
f 226 225 223
f 214 215 210
f 226 222 227
f 210 211 214
f 222 226 223
f 209 217 218
f 221 230 229
f 218 207 208
f 230 220 219
f 218 208 209
f 230 221 220
f 207 208 220
f 207 220 219
f 208 209 221
f 208 221 220
f 209 210 222
f 209 222 221
f 210 211 223
f 210 223 222
f 211 212 224
f 211 224 223
f 212 213 225
f 212 225 224
f 213 214 226
f 213 226 225
f 214 215 227
f 214 227 226
f 215 216 228
f 215 228 227
f 216 217 229
f 216 229 228
f 217 218 230
f 217 230 229
f 218 207 219
f 218 219 230
o building_14
usemtl material_G
v 1917.0000 -321.0000 0.0000
v 1911.0000 -333.0000 0.0000
v 1917.0000 -383.0000 0.0000
v 1923.0000 -391.0000 0.0000
v 1949.0000 -390.0000 0.0000
v 1952.0000 -328.0000 0.0000
v 1942.0000 -320.0000 0.0000
v 1917.0000 -321.0000 39.0000
v 1911.0000 -333.0000 39.0000
v 1917.0000 -383.0000 39.0000
v 1923.0000 -391.0000 39.0000
v 1949.0000 -390.0000 39.0000
v 1952.0000 -328.0000 39.0000
v 1942.0000 -320.0000 39.0000
f 236 232 233
f 243 240 239
f 237 232 236
f 244 243 239
f 231 232 237
f 238 244 239
f 235 236 233
f 242 240 243
f 233 234 235
f 240 242 241
f 231 232 239
f 231 239 238
f 232 233 240
f 232 240 239
f 233 234 241
f 233 241 240
f 234 235 242
f 234 242 241
f 235 236 243
f 235 243 242
f 236 237 244
f 236 244 243
f 237 231 238
f 237 238 244
o building_15
usemtl material_B
v 2026.0000 -319.0000 0.0000
v 2010.0000 -321.0000 0.0000
v 2006.0000 -333.0000 0.0000
v 2009.0000 -391.0000 0.0000
v 2033.0000 -390.0000 0.0000
v 2034.0000 -326.0000 0.0000
v 2026.0000 -319.0000 34.0000
v 2010.0000 -321.0000 34.0000
v 2006.0000 -333.0000 34.0000
v 2009.0000 -391.0000 34.0000
v 2033.0000 -390.0000 34.0000
v 2034.0000 -326.0000 34.0000
f 250 247 249
f 256 255 253
f 249 247 248
f 255 254 253
f 245 247 250
f 251 256 253
f 246 247 245
f 252 251 253
f 245 246 252
f 245 252 251
f 246 247 253
f 246 253 252
f 247 248 254
f 247 254 253
f 248 249 255
f 248 255 254
f 249 250 256
f 249 256 255
f 250 245 251
f 250 251 256
o building_16
usemtl material_B
v 664.0000 -339.0000 0.0000
v 663.0000 -351.0000 0.0000
v 746.0000 -526.0000 0.0000
v 848.0000 -511.0000 0.0000
v 847.0000 -495.0000 0.0000
v 766.0000 -327.0000 0.0000
v 718.0000 -328.0000 0.0000
v 664.0000 -339.0000 42.0000
v 663.0000 -351.0000 42.0000
v 746.0000 -526.0000 42.0000
v 848.0000 -511.0000 42.0000
v 847.0000 -495.0000 42.0000
v 766.0000 -327.0000 42.0000
v 718.0000 -328.0000 42.0000
f 263 258 259
f 270 266 265
f 259 262 263
f 266 270 269
f 257 258 263
f 264 270 265
f 259 260 261
f 266 268 267
f 261 262 259
f 268 266 269
f 257 258 265
f 257 265 264
f 258 259 266
f 258 266 265
f 259 260 267
f 259 267 266
f 260 261 268
f 260 268 267
f 261 262 269
f 261 269 268
f 262 263 270
f 262 270 269
f 263 257 264
f 263 264 270
o building_17
usemtl material_B
v 1581.0000 -336.0000 0.0000
v 1588.0000 -393.0000 0.0000
v 1868.0000 -392.0000 0.0000
v 1872.0000 -386.0000 0.0000
v 1872.0000 -336.0000 0.0000
v 1866.0000 -326.0000 0.0000
v 1590.0000 -326.0000 0.0000
v 1581.0000 -336.0000 127.0000
v 1588.0000 -393.0000 127.0000
v 1868.0000 -392.0000 127.0000
v 1872.0000 -386.0000 127.0000
v 1872.0000 -336.0000 127.0000
v 1866.0000 -326.0000 127.0000
v 1590.0000 -326.0000 127.0000
f 277 271 272
f 284 279 278
f 277 272 273
f 284 280 279
f 273 276 277
f 280 284 283
f 273 274 275
f 280 282 281
f 275 276 273
f 282 280 283
f 271 272 279
f 271 279 278
f 272 273 280
f 272 280 279
f 273 274 281
f 273 281 280
f 274 275 282
f 274 282 281
f 275 276 283
f 275 283 282
f 276 277 284
f 276 284 283
f 277 271 278
f 277 278 284
o building_18
usemtl material_B
v 270.0000 -357.0000 0.0000
v 262.0000 -337.0000 0.0000
v 212.0000 -335.0000 0.0000
v 199.0000 -341.0000 0.0000
v 25.0000 -342.0000 0.0000
v 13.0000 -348.0000 0.0000
v 14.0000 -403.0000 0.0000
v 18.0000 -410.0000 0.0000
v 268.0000 -407.0000 0.0000
v 273.0000 -387.0000 0.0000
v 266.0000 -366.0000 0.0000
v 270.0000 -357.0000 42.0000
v 262.0000 -337.0000 42.0000
v 212.0000 -335.0000 42.0000
v 199.0000 -341.0000 42.0000
v 25.0000 -342.0000 42.0000
v 13.0000 -348.0000 42.0000
v 14.0000 -403.0000 42.0000
v 18.0000 -410.0000 42.0000
v 268.0000 -407.0000 42.0000
v 273.0000 -387.0000 42.0000
v 266.0000 -366.0000 42.0000
f 289 292 288
f 300 299 303
f 289 290 291
f 300 302 301
f 291 292 289
f 302 300 303
f 288 292 293
f 299 304 303
f 293 294 295
f 304 306 305
f 295 288 293
f 306 304 299
f 285 286 295
f 296 306 297
f 287 288 295
f 298 306 299
f 295 286 287
f 306 298 297
f 285 286 297
f 285 297 296
f 286 287 298
f 286 298 297
f 287 288 299
f 287 299 298
f 288 289 300
f 288 300 299
f 289 290 301
f 289 301 300
f 290 291 302
f 290 302 301
f 291 292 303
f 291 303 302
f 292 293 304
f 292 304 303
f 293 294 305
f 293 305 304
f 294 295 306
f 294 306 305
f 295 285 296
f 295 296 306
o building_19
usemtl material_B
v 1088.0000 -368.0000 0.0000
v 1127.0000 -455.0000 0.0000
v 1161.0000 -487.0000 0.0000
v 1224.0000 -518.0000 0.0000
v 1296.0000 -529.0000 0.0000
v 1500.0000 -527.0000 0.0000
v 1512.0000 -514.0000 0.0000
v 1499.0000 -479.0000 0.0000
v 1481.0000 -464.0000 0.0000
v 1457.0000 -463.0000 0.0000
v 1439.0000 -470.0000 0.0000
v 1303.0000 -471.0000 0.0000
v 1242.0000 -460.0000 0.0000
v 1212.0000 -430.0000 0.0000
v 1176.0000 -360.0000 0.0000
v 1163.0000 -351.0000 0.0000
v 1088.0000 -368.0000 255.0000
v 1127.0000 -455.0000 255.0000
v 1161.0000 -487.0000 255.0000
v 1224.0000 -518.0000 255.0000
v 1296.0000 -529.0000 255.0000
v 1500.0000 -527.0000 255.0000
v 1512.0000 -514.0000 255.0000
v 1499.0000 -479.0000 255.0000
v 1481.0000 -464.0000 255.0000
v 1457.0000 -463.0000 255.0000
v 1439.0000 -470.0000 255.0000
v 1303.0000 -471.0000 255.0000
v 1242.0000 -460.0000 255.0000
v 1212.0000 -430.0000 255.0000
v 1176.0000 -360.0000 255.0000
v 1163.0000 -351.0000 255.0000
f 317 311 312
f 333 328 327
f 318 311 317
f 334 333 327
f 312 313 314
f 328 330 329
f 308 309 320
f 324 336 325
f 320 321 308
f 336 324 337
f 317 312 316
f 333 332 328
f 316 312 314
f 332 330 328
f 322 307 308
f 338 324 323
f 308 321 322
f 324 338 337
f 310 311 319
f 326 335 327
f 319 311 318
f 335 334 327
f 319 309 310
f 335 326 325
f 320 309 319
f 336 335 325
f 316 314 315
f 332 331 330
f 307 308 324
f 307 324 323
f 308 309 325
f 308 325 324
f 309 310 326
f 309 326 325
f 310 311 327
f 310 327 326
f 311 312 328
f 311 328 327
f 312 313 329
f 312 329 328
f 313 314 330
f 313 330 329
f 314 315 331
f 314 331 330
f 315 316 332
f 315 332 331
f 316 317 333
f 316 333 332
f 317 318 334
f 317 334 333
f 318 319 335
f 318 335 334
f 319 320 336
f 319 336 335
f 320 321 337
f 320 337 336
f 321 322 338
f 321 338 337
f 322 307 323
f 322 323 338
o building_20
usemtl material_B
v 1582.0000 -479.0000 0.0000
v 1586.0000 -521.0000 0.0000
v 1744.0000 -518.0000 0.0000
v 1744.0000 -482.0000 0.0000
v 1731.0000 -463.0000 0.0000
v 1635.0000 -463.0000 0.0000
v 1622.0000 -469.0000 0.0000
v 1586.0000 -470.0000 0.0000
v 1582.0000 -479.0000 255.0000
v 1586.0000 -521.0000 255.0000
v 1744.0000 -518.0000 255.0000
v 1744.0000 -482.0000 255.0000
v 1731.0000 -463.0000 255.0000
v 1635.0000 -463.0000 255.0000
v 1622.0000 -469.0000 255.0000
v 1586.0000 -470.0000 255.0000
f 340 341 344
f 348 352 349
f 345 339 340
f 353 348 347
f 345 340 344
f 353 352 348
f 346 339 345
f 354 353 347
f 344 341 343
f 352 351 349
f 343 341 342
f 351 350 349
f 339 340 348
f 339 348 347
f 340 341 349
f 340 349 348
f 341 342 350
f 341 350 349
f 342 343 351
f 342 351 350
f 343 344 352
f 343 352 351
f 344 345 353
f 344 353 352
f 345 346 354
f 345 354 353
f 346 339 347
f 346 347 354
o building_21
usemtl material_B
v 1814.0000 -522.0000 0.0000
v 1822.0000 -528.0000 0.0000
v 1854.0000 -522.0000 0.0000
v 2017.0000 -521.0000 0.0000
v 2025.0000 -513.0000 0.0000
v 2023.0000 -495.0000 0.0000
v 2011.0000 -488.0000 0.0000
v 1817.0000 -488.0000 0.0000
v 1814.0000 -522.0000 124.0000
v 1822.0000 -528.0000 124.0000
v 1854.0000 -522.0000 124.0000
v 2017.0000 -521.0000 124.0000
v 2025.0000 -513.0000 124.0000
v 2023.0000 -495.0000 124.0000
v 2011.0000 -488.0000 124.0000
v 1817.0000 -488.0000 124.0000
f 361 362 357
f 369 365 370
f 361 357 358
f 369 366 365
f 358 359 360
f 366 368 367
f 360 361 358
f 368 366 369
f 362 355 356
f 370 364 363
f 357 362 356
f 365 364 370
f 355 356 364
f 355 364 363
f 356 357 365
f 356 365 364
f 357 358 366
f 357 366 365
f 358 359 367
f 358 367 366
f 359 360 368
f 359 368 367
f 360 361 369
f 360 369 368
f 361 362 370
f 361 370 369
f 362 355 363
f 362 363 370
o building_22
usemtl material_B
v 679.0000 -511.0000 0.0000
v 665.0000 -503.0000 0.0000
v 399.0000 -504.0000 0.0000
v 390.0000 -518.0000 0.0000
v 390.0000 -570.0000 0.0000
v 398.0000 -578.0000 0.0000
v 676.0000 -579.0000 0.0000
v 681.0000 -571.0000 0.0000
v 679.0000 -511.0000 42.0000
v 665.0000 -503.0000 42.0000
v 399.0000 -504.0000 42.0000
v 390.0000 -518.0000 42.0000
v 390.0000 -570.0000 42.0000
v 398.0000 -578.0000 42.0000
v 676.0000 -579.0000 42.0000
v 681.0000 -571.0000 42.0000
f 372 378 371
f 380 379 386
f 373 374 376
f 381 384 382
f 376 372 373
f 384 381 380
f 377 378 372
f 385 380 386
f 377 372 376
f 385 384 380
f 376 374 375
f 384 383 382
f 371 372 380
f 371 380 379
f 372 373 381
f 372 381 380
f 373 374 382
f 373 382 381
f 374 375 383
f 374 383 382
f 375 376 384
f 375 384 383
f 376 377 385
f 376 385 384
f 377 378 386
f 377 386 385
f 378 371 379
f 378 379 386
o building_23
usemtl material_B
v 13.0000 -513.0000 0.0000
v 12.0000 -559.0000 0.0000
v 32.0000 -574.0000 0.0000
v 107.0000 -584.0000 0.0000
v 125.0000 -580.0000 0.0000
v 134.0000 -571.0000 0.0000
v 135.0000 -512.0000 0.0000
v 13.0000 -513.0000 42.0000
v 12.0000 -559.0000 42.0000
v 32.0000 -574.0000 42.0000
v 107.0000 -584.0000 42.0000
v 125.0000 -580.0000 42.0000
v 134.0000 -571.0000 42.0000
v 135.0000 -512.0000 42.0000
f 392 393 390
f 399 397 400
f 390 393 389
f 397 396 400
f 392 390 391
f 399 398 397
f 387 388 389
f 394 396 395
f 389 393 387
f 396 394 400
f 387 388 395
f 387 395 394
f 388 389 396
f 388 396 395
f 389 390 397
f 389 397 396
f 390 391 398
f 390 398 397
f 391 392 399
f 391 399 398
f 392 393 400
f 392 400 399
f 393 387 394
f 393 394 400
o building_24
usemtl material_B
v 175.0000 -514.0000 0.0000
v 175.0000 -551.0000 0.0000
v 185.0000 -576.0000 0.0000
v 265.0000 -584.0000 0.0000
v 296.0000 -571.0000 0.0000
v 294.0000 -511.0000 0.0000
v 196.0000 -509.0000 0.0000
v 175.0000 -514.0000 42.0000
v 175.0000 -551.0000 42.0000
v 185.0000 -576.0000 42.0000
v 265.0000 -584.0000 42.0000
v 296.0000 -571.0000 42.0000
v 294.0000 -511.0000 42.0000
v 196.0000 -509.0000 42.0000
f 404 405 406
f 411 413 412
f 406 407 404
f 413 411 414
f 401 402 407
f 408 414 409
f 407 402 403
f 414 410 409
f 404 407 403
f 411 410 414
f 401 402 409
f 401 409 408
f 402 403 410
f 402 410 409
f 403 404 411
f 403 411 410
f 404 405 412
f 404 412 411
f 405 406 413
f 405 413 412
f 406 407 414
f 406 414 413
f 407 401 408
f 407 408 414
o building_25
usemtl material_B
v 880.0000 -576.0000 0.0000
v 860.0000 -543.0000 0.0000
v 776.0000 -559.0000 0.0000
v 773.0000 -566.0000 0.0000
v 785.0000 -597.0000 0.0000
v 797.0000 -601.0000 0.0000
v 879.0000 -586.0000 0.0000
v 880.0000 -576.0000 44.0000
v 860.0000 -543.0000 44.0000
v 776.0000 -559.0000 44.0000
v 773.0000 -566.0000 44.0000
v 785.0000 -597.0000 44.0000
v 797.0000 -601.0000 44.0000
v 879.0000 -586.0000 44.0000
f 421 415 416
f 428 423 422
f 416 420 421
f 423 428 427
f 420 418 419
f 427 426 425
f 417 418 420
f 424 427 425
f 417 420 416
f 424 423 427
f 415 416 423
f 415 423 422
f 416 417 424
f 416 424 423
f 417 418 425
f 417 425 424
f 418 419 426
f 418 426 425
f 419 420 427
f 419 427 426
f 420 421 428
f 420 428 427
f 421 415 422
f 421 422 428
o building_26
usemtl material_R
v 1527.0000 -634.0000 0.0000
v 1539.0000 -648.0000 0.0000
v 1750.0000 -681.0000 0.0000
v 1768.0000 -680.0000 0.0000
v 1785.0000 -648.0000 0.0000
v 1784.0000 -638.0000 0.0000
v 1772.0000 -632.0000 0.0000
v 1553.0000 -592.0000 0.0000
v 1536.0000 -601.0000 0.0000
v 1527.0000 -634.0000 44.0000
v 1539.0000 -648.0000 44.0000
v 1750.0000 -681.0000 44.0000
v 1768.0000 -680.0000 44.0000
v 1785.0000 -648.0000 44.0000
v 1784.0000 -638.0000 44.0000
v 1772.0000 -632.0000 44.0000
v 1553.0000 -592.0000 44.0000
v 1536.0000 -601.0000 44.0000
f 431 436 430
f 440 439 445
f 437 429 430
f 446 439 438
f 430 436 437
f 439 446 445
f 435 436 431
f 444 440 445
f 435 433 434
f 444 443 442
f 432 433 435
f 441 444 442
f 435 431 432
f 444 441 440
f 429 430 439
f 429 439 438
f 430 431 440
f 430 440 439
f 431 432 441
f 431 441 440
f 432 433 442
f 432 442 441
f 433 434 443
f 433 443 442
f 434 435 444
f 434 444 443
f 435 436 445
f 435 445 444
f 436 437 446
f 436 446 445
f 437 429 438
f 437 438 446
o building_27
usemtl material_R
v 899.0000 -617.0000 0.0000
v 801.0000 -638.0000 0.0000
v 798.0000 -645.0000 0.0000
v 865.0000 -798.0000 0.0000
v 878.0000 -810.0000 0.0000
v 965.0000 -792.0000 0.0000
v 969.0000 -785.0000 0.0000
v 899.0000 -617.0000 127.0000
v 801.0000 -638.0000 127.0000
v 798.0000 -645.0000 127.0000
v 865.0000 -798.0000 127.0000
v 878.0000 -810.0000 127.0000
v 965.0000 -792.0000 127.0000
v 969.0000 -785.0000 127.0000
f 447 449 450
f 454 457 456
f 450 453 447
f 457 454 460
f 452 453 450
f 459 457 460
f 448 449 447
f 455 454 456
f 451 452 450
f 458 457 459
f 447 448 455
f 447 455 454
f 448 449 456
f 448 456 455
f 449 450 457
f 449 457 456
f 450 451 458
f 450 458 457
f 451 452 459
f 451 459 458
f 452 453 460
f 452 460 459
f 453 447 454
f 453 454 460
o building_28
usemtl material_B
v 1944.0000 -665.0000 0.0000
v 2005.0000 -671.0000 0.0000
v 2016.0000 -648.0000 0.0000
v 2007.0000 -641.0000 0.0000
v 1959.0000 -639.0000 0.0000
v 1944.0000 -655.0000 0.0000
v 1944.0000 -665.0000 29.0000
v 2005.0000 -671.0000 29.0000
v 2016.0000 -648.0000 29.0000
v 2007.0000 -641.0000 29.0000
v 1959.0000 -639.0000 29.0000
v 1944.0000 -655.0000 29.0000
f 465 466 461
f 471 467 472
f 461 462 465
f 467 471 468
f 462 463 464
f 468 470 469
f 465 462 464
f 471 470 468
f 461 462 468
f 461 468 467
f 462 463 469
f 462 469 468
f 463 464 470
f 463 470 469
f 464 465 471
f 464 471 470
f 465 466 472
f 465 472 471
f 466 461 467
f 466 467 472
o building_29
usemtl material_B
v 14.0000 -672.0000 0.0000
v 15.0000 -718.0000 0.0000
v 40.0000 -737.0000 0.0000
v 73.0000 -744.0000 0.0000
v 107.0000 -743.0000 0.0000
v 127.0000 -735.0000 0.0000
v 134.0000 -722.0000 0.0000
v 136.0000 -678.0000 0.0000
v 130.0000 -672.0000 0.0000
v 14.0000 -672.0000 42.0000
v 15.0000 -718.0000 42.0000
v 40.0000 -737.0000 42.0000
v 73.0000 -744.0000 42.0000
v 107.0000 -743.0000 42.0000
v 127.0000 -735.0000 42.0000
v 134.0000 -722.0000 42.0000
v 136.0000 -678.0000 42.0000
v 130.0000 -672.0000 42.0000
f 481 473 476
f 490 485 482
f 481 476 477
f 490 486 485
f 476 473 475
f 485 484 482
f 475 473 474
f 484 483 482
f 477 478 479
f 486 488 487
f 479 481 477
f 488 486 490
f 479 480 481
f 488 490 489
f 473 474 483
f 473 483 482
f 474 475 484
f 474 484 483
f 475 476 485
f 475 485 484
f 476 477 486
f 476 486 485
f 477 478 487
f 477 487 486
f 478 479 488
f 478 488 487
f 479 480 489
f 479 489 488
f 480 481 490
f 480 490 489
f 481 473 482
f 481 482 490
o building_30
usemtl material_G
v 180.0000 -674.0000 0.0000
v 178.0000 -705.0000 0.0000
v 184.0000 -727.0000 0.0000
v 193.0000 -734.0000 0.0000
v 228.0000 -739.0000 0.0000
v 296.0000 -735.0000 0.0000
v 294.0000 -672.0000 0.0000
v 197.0000 -669.0000 0.0000
v 180.0000 -674.0000 42.0000
v 178.0000 -705.0000 42.0000
v 184.0000 -727.0000 42.0000
v 193.0000 -734.0000 42.0000
v 228.0000 -739.0000 42.0000
v 296.0000 -735.0000 42.0000
v 294.0000 -672.0000 42.0000
v 197.0000 -669.0000 42.0000
f 498 492 495
f 506 503 500
f 495 496 497
f 503 505 504
f 497 498 495
f 505 503 506
f 491 492 498
f 499 506 500
f 495 492 494
f 503 502 500
f 494 492 493
f 502 501 500
f 491 492 500
f 491 500 499
f 492 493 501
f 492 501 500
f 493 494 502
f 493 502 501
f 494 495 503
f 494 503 502
f 495 496 504
f 495 504 503
f 496 497 505
f 496 505 504
f 497 498 506
f 497 506 505
f 498 491 499
f 498 499 506
o building_31
usemtl material_B
v 359.0000 -687.0000 0.0000
v 359.0000 -742.0000 0.0000
v 368.0000 -745.0000 0.0000
v 719.0000 -747.0000 0.0000
v 727.0000 -738.0000 0.0000
v 728.0000 -689.0000 0.0000
v 718.0000 -679.0000 0.0000
v 370.0000 -679.0000 0.0000
v 359.0000 -687.0000 42.0000
v 359.0000 -742.0000 42.0000
v 368.0000 -745.0000 42.0000
v 719.0000 -747.0000 42.0000
v 727.0000 -738.0000 42.0000
v 728.0000 -689.0000 42.0000
v 718.0000 -679.0000 42.0000
v 370.0000 -679.0000 42.0000
f 510 514 509
f 518 517 522
f 507 508 509
f 515 517 516
f 509 514 507
f 517 515 522
f 513 514 510
f 521 518 522
f 511 512 513
f 519 521 520
f 513 510 511
f 521 519 518
f 507 508 516
f 507 516 515
f 508 509 517
f 508 517 516
f 509 510 518
f 509 518 517
f 510 511 519
f 510 519 518
f 511 512 520
f 511 520 519
f 512 513 521
f 512 521 520
f 513 514 522
f 513 522 521
f 514 507 515
f 514 515 522
o building_32
usemtl material_G
v 1952.0000 -716.0000 0.0000
v 1954.0000 -734.0000 0.0000
v 1987.0000 -739.0000 0.0000
v 2000.0000 -732.0000 0.0000
v 1997.0000 -711.0000 0.0000
v 1968.0000 -709.0000 0.0000
v 1952.0000 -716.0000 38.0000
v 1954.0000 -734.0000 38.0000
v 1987.0000 -739.0000 38.0000
v 2000.0000 -732.0000 38.0000
v 1997.0000 -711.0000 38.0000
v 1968.0000 -709.0000 38.0000
f 525 526 527
f 531 533 532
f 527 528 525
f 533 531 534
f 528 523 524
f 534 530 529
f 525 528 524
f 531 530 534
f 523 524 530
f 523 530 529
f 524 525 531
f 524 531 530
f 525 526 532
f 525 532 531
f 526 527 533
f 526 533 532
f 527 528 534
f 527 534 533
f 528 523 529
f 528 529 534
o building_33
usemtl material_G
v 1943.0000 -789.0000 0.0000
v 1944.0000 -799.0000 0.0000
v 1974.0000 -800.0000 0.0000
v 1985.0000 -786.0000 0.0000
v 1975.0000 -776.0000 0.0000
v 1957.0000 -775.0000 0.0000
v 1943.0000 -789.0000 32.0000
v 1944.0000 -799.0000 32.0000
v 1974.0000 -800.0000 32.0000
v 1985.0000 -786.0000 32.0000
v 1975.0000 -776.0000 32.0000
v 1957.0000 -775.0000 32.0000
f 537 535 536
f 543 542 541
f 540 535 537
f 546 543 541
f 537 538 539
f 543 545 544
f 540 537 539
f 546 545 543
f 535 536 542
f 535 542 541
f 536 537 543
f 536 543 542
f 537 538 544
f 537 544 543
f 538 539 545
f 538 545 544
f 539 540 546
f 539 546 545
f 540 535 541
f 540 541 546
o building_34
usemtl material_B
v 1008.0000 -831.0000 0.0000
v 998.0000 -823.0000 0.0000
v 978.0000 -823.0000 0.0000
v 893.0000 -842.0000 0.0000
v 887.0000 -864.0000 0.0000
v 893.0000 -875.0000 0.0000
v 897.0000 -931.0000 0.0000
v 909.0000 -937.0000 0.0000
v 955.0000 -936.0000 0.0000
v 1007.0000 -905.0000 0.0000
v 1016.0000 -867.0000 0.0000
v 1008.0000 -831.0000 127.0000
v 998.0000 -823.0000 127.0000
v 978.0000 -823.0000 127.0000
v 893.0000 -842.0000 127.0000
v 887.0000 -864.0000 127.0000
v 893.0000 -875.0000 127.0000
v 897.0000 -931.0000 127.0000
v 909.0000 -937.0000 127.0000
v 955.0000 -936.0000 127.0000
v 1007.0000 -905.0000 127.0000
v 1016.0000 -867.0000 127.0000
f 549 557 547
f 560 558 568
f 547 548 549
f 558 560 559
f 552 554 555
f 563 566 565
f 553 554 552
f 564 563 565
f 552 555 549
f 563 560 566
f 550 551 552
f 561 563 562
f 549 550 552
f 560 563 561
f 556 557 549
f 567 560 568
f 549 555 556
f 560 567 566
f 547 548 559
f 547 559 558
f 548 549 560
f 548 560 559
f 549 550 561
f 549 561 560
f 550 551 562
f 550 562 561
f 551 552 563
f 551 563 562
f 552 553 564
f 552 564 563
f 553 554 565
f 553 565 564
f 554 555 566
f 554 566 565
f 555 556 567
f 555 567 566
f 556 557 568
f 556 568 567
f 557 547 558
f 557 558 568
o building_35
usemtl material_G
v 1935.0000 -831.0000 0.0000
v 1918.0000 -857.0000 0.0000
v 1919.0000 -865.0000 0.0000
v 1959.0000 -871.0000 0.0000
v 1968.0000 -839.0000 0.0000
v 1935.0000 -831.0000 255.0000
v 1918.0000 -857.0000 255.0000
v 1919.0000 -865.0000 255.0000
v 1959.0000 -871.0000 255.0000
v 1968.0000 -839.0000 255.0000
f 572 570 571
f 577 576 575
f 569 570 572
f 574 577 575
f 572 573 569
f 577 574 578
f 569 570 575
f 569 575 574
f 570 571 576
f 570 576 575
f 571 572 577
f 571 577 576
f 572 573 578
f 572 578 577
f 573 569 574
f 573 574 578
o building_36
usemtl material_B
v 837.0000 -849.0000 0.0000
v 666.0000 -855.0000 0.0000
v 662.0000 -867.0000 0.0000
v 669.0000 -887.0000 0.0000
v 665.0000 -908.0000 0.0000
v 670.0000 -927.0000 0.0000
v 838.0000 -927.0000 0.0000
v 837.0000 -849.0000 42.0000
v 666.0000 -855.0000 42.0000
v 662.0000 -867.0000 42.0000
v 669.0000 -887.0000 42.0000
v 665.0000 -908.0000 42.0000
v 670.0000 -927.0000 42.0000
v 838.0000 -927.0000 42.0000
f 582 585 579
f 589 586 592
f 580 581 582
f 587 589 588
f 582 579 580
f 589 587 586
f 584 585 582
f 591 589 592
f 584 582 583
f 591 590 589
f 579 580 587
f 579 587 586
f 580 581 588
f 580 588 587
f 581 582 589
f 581 589 588
f 582 583 590
f 582 590 589
f 583 584 591
f 583 591 590
f 584 585 592
f 584 592 591
f 585 579 586
f 585 586 592
o building_37
usemtl material_B
v 407.0000 -865.0000 0.0000
v 401.0000 -928.0000 0.0000
v 599.0000 -926.0000 0.0000
v 601.0000 -869.0000 0.0000
v 593.0000 -857.0000 0.0000
v 416.0000 -856.0000 0.0000
v 407.0000 -865.0000 127.0000
v 401.0000 -928.0000 127.0000
v 599.0000 -926.0000 127.0000
v 601.0000 -869.0000 127.0000
v 593.0000 -857.0000 127.0000
v 416.0000 -856.0000 127.0000
f 593 594 598
f 599 604 600
f 598 594 595
f 604 601 600
f 595 596 597
f 601 603 602
f 597 598 595
f 603 601 604
f 593 594 600
f 593 600 599
f 594 595 601
f 594 601 600
f 595 596 602
f 595 602 601
f 596 597 603
f 596 603 602
f 597 598 604
f 597 604 603
f 598 593 599
f 598 599 604
o building_38
usemtl material_B
v 247.0000 -865.0000 0.0000
v 19.0000 -862.0000 0.0000
v 12.0000 -867.0000 0.0000
v 13.0000 -920.0000 0.0000
v 24.0000 -926.0000 0.0000
v 240.0000 -926.0000 0.0000
v 249.0000 -910.0000 0.0000
v 247.0000 -865.0000 42.0000
v 19.0000 -862.0000 42.0000
v 12.0000 -867.0000 42.0000
v 13.0000 -920.0000 42.0000
v 24.0000 -926.0000 42.0000
v 240.0000 -926.0000 42.0000
v 249.0000 -910.0000 42.0000
f 610 611 605
f 617 612 618
f 609 607 608
f 616 615 614
f 609 610 606
f 616 613 617
f 606 610 605
f 613 612 617
f 606 607 609
f 613 616 614
f 605 606 613
f 605 613 612
f 606 607 614
f 606 614 613
f 607 608 615
f 607 615 614
f 608 609 616
f 608 616 615
f 609 610 617
f 609 617 616
f 610 611 618
f 610 618 617
f 611 605 612
f 611 612 618
o building_39
usemtl material_B
v 296.0000 -865.0000 0.0000
v 291.0000 -876.0000 0.0000
v 297.0000 -920.0000 0.0000
v 355.0000 -918.0000 0.0000
v 350.0000 -868.0000 0.0000
v 296.0000 -865.0000 43.0000
v 291.0000 -876.0000 43.0000
v 297.0000 -920.0000 43.0000
v 355.0000 -918.0000 43.0000
v 350.0000 -868.0000 43.0000
f 623 620 621
f 628 626 625
f 621 622 623
f 626 628 627
f 619 620 623
f 624 628 625
f 619 620 625
f 619 625 624
f 620 621 626
f 620 626 625
f 621 622 627
f 621 627 626
f 622 623 628
f 622 628 627
f 623 619 624
f 623 624 628
o building_40
usemtl material_G
v 1873.0000 -913.0000 0.0000
v 1874.0000 -958.0000 0.0000
v 1935.0000 -960.0000 0.0000
v 1937.0000 -924.0000 0.0000
v 1932.0000 -913.0000 0.0000
v 1873.0000 -913.0000 45.0000
v 1874.0000 -958.0000 45.0000
v 1935.0000 -960.0000 45.0000
v 1937.0000 -924.0000 45.0000
v 1932.0000 -913.0000 45.0000
f 633 629 632
f 638 637 634
f 632 629 630
f 637 635 634
f 631 632 630
f 636 635 637
f 629 630 635
f 629 635 634
f 630 631 636
f 630 636 635
f 631 632 637
f 631 637 636
f 632 633 638
f 632 638 637
f 633 629 634
f 633 634 638
o building_41
usemtl material_B
v 887.0000 -1033.0000 0.0000
v 885.0000 -1131.0000 0.0000
v 891.0000 -1142.0000 0.0000
v 951.0000 -1143.0000 0.0000
v 1017.0000 -1135.0000 0.0000
v 1016.0000 -1041.0000 0.0000
v 1009.0000 -1031.0000 0.0000
v 887.0000 -1033.0000 249.0000
v 885.0000 -1131.0000 249.0000
v 891.0000 -1142.0000 249.0000
v 951.0000 -1143.0000 249.0000
v 1017.0000 -1135.0000 249.0000
v 1016.0000 -1041.0000 249.0000
v 1009.0000 -1031.0000 249.0000
f 639 640 642
f 646 649 647
f 642 645 639
f 649 646 652
f 642 643 644
f 649 651 650
f 644 645 642
f 651 649 652
f 642 640 641
f 649 648 647
f 639 640 647
f 639 647 646
f 640 641 648
f 640 648 647
f 641 642 649
f 641 649 648
f 642 643 650
f 642 650 649
f 643 644 651
f 643 651 650
f 644 645 652
f 644 652 651
f 645 639 646
f 645 646 652
o building_42
usemtl material_R
v 1071.0000 -1037.0000 0.0000
v 1063.0000 -1049.0000 0.0000
v 1064.0000 -1099.0000 0.0000
v 1079.0000 -1248.0000 0.0000
v 1128.0000 -1249.0000 0.0000
v 1142.0000 -1258.0000 0.0000
v 1147.0000 -1374.0000 0.0000
v 1223.0000 -1376.0000 0.0000
v 1230.0000 -1365.0000 0.0000
v 1231.0000 -1344.0000 0.0000
v 1225.0000 -1318.0000 0.0000
v 1223.0000 -1222.0000 0.0000
v 1217.0000 -1206.0000 0.0000
v 1211.0000 -1038.0000 0.0000
v 1203.0000 -1031.0000 0.0000
v 1107.0000 -1031.0000 0.0000
v 1071.0000 -1037.0000 20.0000
v 1063.0000 -1049.0000 20.0000
v 1064.0000 -1099.0000 20.0000
v 1079.0000 -1248.0000 20.0000
v 1128.0000 -1249.0000 20.0000
v 1142.0000 -1258.0000 20.0000
v 1147.0000 -1374.0000 20.0000
v 1223.0000 -1376.0000 20.0000
v 1230.0000 -1365.0000 20.0000
v 1231.0000 -1344.0000 20.0000
v 1225.0000 -1318.0000 20.0000
v 1223.0000 -1222.0000 20.0000
v 1217.0000 -1206.0000 20.0000
v 1211.0000 -1038.0000 20.0000
v 1203.0000 -1031.0000 20.0000
v 1107.0000 -1031.0000 20.0000
f 660 662 659
f 676 675 678
f 655 657 665
f 671 681 673
f 661 662 660
f 677 676 678
f 653 654 668
f 669 684 670
f 668 654 655
f 684 671 670
f 656 657 655
f 672 671 673
f 666 655 665
f 682 681 671
f 666 667 668
f 682 684 683
f 668 655 666
f 684 682 671
f 659 662 663
f 675 679 678
f 665 657 658
f 681 674 673
f 658 659 663
f 674 679 675
f 664 665 658
f 680 674 681
f 658 663 664
f 674 680 679
f 653 654 670
f 653 670 669
f 654 655 671
f 654 671 670
f 655 656 672
f 655 672 671
f 656 657 673
f 656 673 672
f 657 658 674
f 657 674 673
f 658 659 675
f 658 675 674
f 659 660 676
f 659 676 675
f 660 661 677
f 660 677 676
f 661 662 678
f 661 678 677
f 662 663 679
f 662 679 678
f 663 664 680
f 663 680 679
f 664 665 681
f 664 681 680
f 665 666 682
f 665 682 681
f 666 667 683
f 666 683 682
f 667 668 684
f 667 684 683
f 668 653 669
f 668 669 684
o building_43
usemtl material_B
v 822.0000 -1043.0000 0.0000
v 676.0000 -1039.0000 0.0000
v 608.0000 -1046.0000 0.0000
v 317.0000 -1046.0000 0.0000
v 310.0000 -1054.0000 0.0000
v 312.0000 -1129.0000 0.0000
v 319.0000 -1143.0000 0.0000
v 821.0000 -1144.0000 0.0000
v 822.0000 -1043.0000 236.0000
v 676.0000 -1039.0000 236.0000
v 608.0000 -1046.0000 236.0000
v 317.0000 -1046.0000 236.0000
v 310.0000 -1054.0000 236.0000
v 312.0000 -1129.0000 236.0000
v 319.0000 -1143.0000 236.0000
v 821.0000 -1144.0000 236.0000
f 691 692 687
f 699 695 700
f 691 687 688
f 699 696 695
f 692 685 686
f 700 694 693
f 687 692 686
f 695 694 700
f 688 689 690
f 696 698 697
f 691 688 690
f 699 698 696
f 685 686 694
f 685 694 693
f 686 687 695
f 686 695 694
f 687 688 696
f 687 696 695
f 688 689 697
f 688 697 696
f 689 690 698
f 689 698 697
f 690 691 699
f 690 699 698
f 691 692 700
f 691 700 699
f 692 685 693
f 692 693 700
o building_44
usemtl material_G
v 1025.0000 -1186.0000 0.0000
v 896.0000 -1185.0000 0.0000
v 897.0000 -1257.0000 0.0000
v 914.0000 -1263.0000 0.0000
v 1030.0000 -1256.0000 0.0000
v 1031.0000 -1206.0000 0.0000
v 1025.0000 -1186.0000 20.0000
v 896.0000 -1185.0000 20.0000
v 897.0000 -1257.0000 20.0000
v 914.0000 -1263.0000 20.0000
v 1030.0000 -1256.0000 20.0000
v 1031.0000 -1206.0000 20.0000
f 705 706 704
f 711 710 712
f 701 702 704
f 707 710 708
f 704 706 701
f 710 707 712
f 704 702 703
f 710 709 708
f 701 702 708
f 701 708 707
f 702 703 709
f 702 709 708
f 703 704 710
f 703 710 709
f 704 705 711
f 704 711 710
f 705 706 712
f 705 712 711
f 706 701 707
f 706 707 712
o building_45
usemtl material_B
v 704.0000 -1264.0000 0.0000
v 691.0000 -1255.0000 0.0000
v 440.0000 -1262.0000 0.0000
v 425.0000 -1272.0000 0.0000
v 424.0000 -1309.0000 0.0000
v 433.0000 -1322.0000 0.0000
v 461.0000 -1326.0000 0.0000
v 694.0000 -1321.0000 0.0000
v 704.0000 -1317.0000 0.0000
v 704.0000 -1264.0000 20.0000
v 691.0000 -1255.0000 20.0000
v 440.0000 -1262.0000 20.0000
v 425.0000 -1272.0000 20.0000
v 424.0000 -1309.0000 20.0000
v 433.0000 -1322.0000 20.0000
v 461.0000 -1326.0000 20.0000
v 694.0000 -1321.0000 20.0000
v 704.0000 -1317.0000 20.0000
f 720 714 719
f 729 728 723
f 720 721 713
f 729 722 730
f 713 714 720
f 722 729 723
f 719 717 718
f 728 727 726
f 719 714 715
f 728 724 723
f 716 717 715
f 725 724 726
f 715 717 719
f 724 728 726
f 713 714 723
f 713 723 722
f 714 715 724
f 714 724 723
f 715 716 725
f 715 725 724
f 716 717 726
f 716 726 725
f 717 718 727
f 717 727 726
f 718 719 728
f 718 728 727
f 719 720 729
f 719 729 728
f 720 721 730
f 720 730 729
f 721 713 722
f 721 722 730
o building_46
usemtl material_B
v 916.0000 -1297.0000 0.0000
v 918.0000 -1314.0000 0.0000
v 927.0000 -1320.0000 0.0000
v 1038.0000 -1316.0000 0.0000
v 1042.0000 -1306.0000 0.0000
v 1039.0000 -1286.0000 0.0000
v 1030.0000 -1280.0000 0.0000
v 937.0000 -1280.0000 0.0000
v 920.0000 -1285.0000 0.0000
v 916.0000 -1297.0000 20.0000
v 918.0000 -1314.0000 20.0000
v 927.0000 -1320.0000 20.0000
v 1038.0000 -1316.0000 20.0000
v 1042.0000 -1306.0000 20.0000
v 1039.0000 -1286.0000 20.0000
v 1030.0000 -1280.0000 20.0000
v 937.0000 -1280.0000 20.0000
v 920.0000 -1285.0000 20.0000
f 737 735 736
f 746 745 744
f 734 735 737
f 743 746 744
f 733 731 732
f 742 741 740
f 734 737 738
f 743 747 746
f 738 733 734
f 747 743 742
f 739 731 738
f 748 747 740
f 738 731 733
f 747 742 740
f 731 732 741
f 731 741 740
f 732 733 742
f 732 742 741
f 733 734 743
f 733 743 742
f 734 735 744
f 734 744 743
f 735 736 745
f 735 745 744
f 736 737 746
f 736 746 745
f 737 738 747
f 737 747 746
f 738 739 748
f 738 748 747
f 739 731 740
f 739 740 748
o building_47
usemtl material_B
v 871.0000 -1289.0000 0.0000
v 799.0000 -1296.0000 0.0000
v 802.0000 -1406.0000 0.0000
v 880.0000 -1404.0000 0.0000
v 880.0000 -1299.0000 0.0000
v 871.0000 -1289.0000 20.0000
v 799.0000 -1296.0000 20.0000
v 802.0000 -1406.0000 20.0000
v 880.0000 -1404.0000 20.0000
v 880.0000 -1299.0000 20.0000
f 753 750 751
f 758 756 755
f 752 753 751
f 757 756 758
f 749 750 753
f 754 758 755
f 749 750 755
f 749 755 754
f 750 751 756
f 750 756 755
f 751 752 757
f 751 757 756
f 752 753 758
f 752 758 757
f 753 749 754
f 753 754 758
o building_48
usemtl material_B
v 1062.0000 -1378.0000 0.0000
v 1055.0000 -1357.0000 0.0000
v 1046.0000 -1352.0000 0.0000
v 928.0000 -1357.0000 0.0000
v 919.0000 -1361.0000 0.0000
v 922.0000 -1407.0000 0.0000
v 1045.0000 -1402.0000 0.0000
v 1062.0000 -1395.0000 0.0000
v 1062.0000 -1378.0000 20.0000
v 1055.0000 -1357.0000 20.0000
v 1046.0000 -1352.0000 20.0000
v 928.0000 -1357.0000 20.0000
v 919.0000 -1361.0000 20.0000
v 922.0000 -1407.0000 20.0000
v 1045.0000 -1402.0000 20.0000
v 1062.0000 -1395.0000 20.0000
f 766 759 765
f 774 773 767
f 765 759 761
f 773 769 767
f 762 763 764
f 770 772 771
f 762 764 765
f 770 773 772
f 762 765 761
f 770 769 773
f 761 759 760
f 769 768 767
f 759 760 768
f 759 768 767
f 760 761 769
f 760 769 768
f 761 762 770
f 761 770 769
f 762 763 771
f 762 771 770
f 763 764 772
f 763 772 771
f 764 765 773
f 764 773 772
f 765 766 774
f 765 774 773
f 766 759 767
f 766 767 774
o building_49
usemtl material_B
v 503.0000 -1396.0000 0.0000
v 503.0000 -1417.0000 0.0000
v 511.0000 -1424.0000 0.0000
v 635.0000 -1421.0000 0.0000
v 631.0000 -1389.0000 0.0000
v 553.0000 -1386.0000 0.0000
v 513.0000 -1389.0000 0.0000
v 503.0000 -1396.0000 240.0000
v 503.0000 -1417.0000 240.0000
v 511.0000 -1424.0000 240.0000
v 635.0000 -1421.0000 240.0000
v 631.0000 -1389.0000 240.0000
v 553.0000 -1386.0000 240.0000
v 513.0000 -1389.0000 240.0000
f 780 778 779
f 787 786 785
f 777 778 780
f 784 787 785
f 781 776 777
f 788 784 783
f 777 780 781
f 784 788 787
f 775 776 781
f 782 788 783
f 775 776 783
f 775 783 782
f 776 777 784
f 776 784 783
f 777 778 785
f 777 785 784
f 778 779 786
f 778 786 785
f 779 780 787
f 779 787 786
f 780 781 788
f 780 788 787
f 781 775 782
f 781 782 788
o building_50
usemtl material_B
v 984.0000 -1446.0000 0.0000
v 976.0000 -1436.0000 0.0000
v 815.0000 -1439.0000 0.0000
v 801.0000 -1448.0000 0.0000
v 801.0000 -1471.0000 0.0000
v 807.0000 -1482.0000 0.0000
v 822.0000 -1486.0000 0.0000
v 980.0000 -1481.0000 0.0000
v 985.0000 -1473.0000 0.0000
v 984.0000 -1446.0000 20.0000
v 976.0000 -1436.0000 20.0000
v 815.0000 -1439.0000 20.0000
v 801.0000 -1448.0000 20.0000
v 801.0000 -1471.0000 20.0000
v 807.0000 -1482.0000 20.0000
v 822.0000 -1486.0000 20.0000
v 980.0000 -1481.0000 20.0000
v 985.0000 -1473.0000 20.0000
f 795 790 791
f 804 800 799
f 796 790 795
f 805 804 799
f 796 797 789
f 805 798 806
f 789 790 796
f 798 805 799
f 791 792 793
f 800 802 801
f 793 795 791
f 802 800 804
f 794 795 793
f 803 802 804
f 789 790 799
f 789 799 798
f 790 791 800
f 790 800 799
f 791 792 801
f 791 801 800
f 792 793 802
f 792 802 801
f 793 794 803
f 793 803 802
f 794 795 804
f 794 804 803
f 795 796 805
f 795 805 804
f 796 797 806
f 796 806 805
f 797 789 798
f 797 798 806
o building_51
usemtl material_B
v 1151.0000 -1590.0000 0.0000
v 1143.0000 -1567.0000 0.0000
v 1134.0000 -1561.0000 0.0000
v 1116.0000 -1565.0000 0.0000
v 1113.0000 -1560.0000 0.0000
v 1096.0000 -1566.0000 0.0000
v 912.0000 -1569.0000 0.0000
v 899.0000 -1577.0000 0.0000
v 895.0000 -1588.0000 0.0000
v 905.0000 -1647.0000 0.0000
v 925.0000 -1641.0000 0.0000
v 1144.0000 -1638.0000 0.0000
v 1153.0000 -1626.0000 0.0000
v 1147.0000 -1602.0000 0.0000
v 1151.0000 -1590.0000 42.0000
v 1143.0000 -1567.0000 42.0000
v 1134.0000 -1561.0000 42.0000
v 1116.0000 -1565.0000 42.0000
v 1113.0000 -1560.0000 42.0000
v 1096.0000 -1566.0000 42.0000
v 912.0000 -1569.0000 42.0000
v 899.0000 -1577.0000 42.0000
v 895.0000 -1588.0000 42.0000
v 905.0000 -1647.0000 42.0000
v 925.0000 -1641.0000 42.0000
v 1144.0000 -1638.0000 42.0000
v 1153.0000 -1626.0000 42.0000
v 1147.0000 -1602.0000 42.0000
f 817 815 816
f 831 830 829
f 812 817 818
f 826 832 831
f 818 819 820
f 832 834 833
f 818 820 812
f 832 826 834
f 810 811 812
f 824 826 825
f 812 820 810
f 826 824 834
f 810 820 807
f 824 821 834
f 810 808 809
f 824 823 822
f 807 808 810
f 821 824 822
f 813 817 812
f 827 826 831
f 813 815 817
f 827 831 829
f 814 815 813
f 828 827 829
f 807 808 822
f 807 822 821
f 808 809 823
f 808 823 822
f 809 810 824
f 809 824 823
f 810 811 825
f 810 825 824
f 811 812 826
f 811 826 825
f 812 813 827
f 812 827 826
f 813 814 828
f 813 828 827
f 814 815 829
f 814 829 828
f 815 816 830
f 815 830 829
f 816 817 831
f 816 831 830
f 817 818 832
f 817 832 831
f 818 819 833
f 818 833 832
f 819 820 834
f 819 834 833
f 820 807 821
f 820 821 834
o building_52
usemtl material_G
v 838.0000 -1577.0000 0.0000
v 753.0000 -1574.0000 0.0000
v 425.0000 -1584.0000 0.0000
v 424.0000 -1664.0000 0.0000
v 429.0000 -1668.0000 0.0000
v 430.0000 -1793.0000 0.0000
v 438.0000 -1822.0000 0.0000
v 439.0000 -1964.0000 0.0000
v 445.0000 -1976.0000 0.0000
v 448.0000 -2045.0000 0.0000
v 441.0000 -2047.0000 0.0000
v 703.0000 -2047.0000 0.0000
v 626.0000 -2046.0000 0.0000
v 625.0000 -2040.0000 0.0000
v 863.0000 -2032.0000 0.0000
v 856.0000 -1700.0000 0.0000
v 848.0000 -1675.0000 0.0000
v 849.0000 -1593.0000 0.0000
v 838.0000 -1577.0000 255.0000
v 753.0000 -1574.0000 255.0000
v 425.0000 -1584.0000 255.0000
v 424.0000 -1664.0000 255.0000
v 429.0000 -1668.0000 255.0000
v 430.0000 -1793.0000 255.0000
v 438.0000 -1822.0000 255.0000
v 439.0000 -1964.0000 255.0000
v 445.0000 -1976.0000 255.0000
v 448.0000 -2045.0000 255.0000
v 441.0000 -2047.0000 255.0000
v 703.0000 -2047.0000 255.0000
v 626.0000 -2046.0000 255.0000
v 625.0000 -2040.0000 255.0000
v 863.0000 -2032.0000 255.0000
v 856.0000 -1700.0000 255.0000
v 848.0000 -1675.0000 255.0000
v 849.0000 -1593.0000 255.0000
f 850 836 841
f 868 859 854
f 841 848 850
f 859 868 866
f 835 836 852
f 853 870 854
f 837 838 839
f 855 857 856
f 839 836 837
f 857 855 854
f 846 849 850
f 864 868 867
f 850 848 846
f 868 864 866
f 847 845 846
f 865 864 863
f 852 836 851
f 870 869 854
f 851 836 850
f 869 868 854
f 841 836 840
f 859 858 854
f 840 836 839
f 858 857 854
f 844 848 843
f 862 861 866
f 844 845 847
f 862 865 863
f 847 848 844
f 865 862 866
f 842 848 841
f 860 859 866
f 843 848 842
f 861 860 866
f 835 836 854
f 835 854 853
f 836 837 855
f 836 855 854
f 837 838 856
f 837 856 855
f 838 839 857
f 838 857 856
f 839 840 858
f 839 858 857
f 840 841 859
f 840 859 858
f 841 842 860
f 841 860 859
f 842 843 861
f 842 861 860
f 843 844 862
f 843 862 861
f 844 845 863
f 844 863 862
f 845 846 864
f 845 864 863
f 846 847 865
f 846 865 864
f 847 848 866
f 847 866 865
f 848 849 867
f 848 867 866
f 849 850 868
f 849 868 867
f 850 851 869
f 850 869 868
f 851 852 870
f 851 870 869
f 852 835 853
f 852 853 870
o building_53
usemtl material_B
v 1153.0000 -1708.0000 0.0000
v 1144.0000 -1702.0000 0.0000
v 916.0000 -1709.0000 0.0000
v 909.0000 -1719.0000 0.0000
v 910.0000 -1766.0000 0.0000
v 1145.0000 -1769.0000 0.0000
v 1153.0000 -1765.0000 0.0000
v 1153.0000 -1708.0000 42.0000
v 1144.0000 -1702.0000 42.0000
v 916.0000 -1709.0000 42.0000
v 909.0000 -1719.0000 42.0000
v 910.0000 -1766.0000 42.0000
v 1145.0000 -1769.0000 42.0000
v 1153.0000 -1765.0000 42.0000
f 876 877 871
f 883 878 884
f 871 872 876
f 878 883 879
f 876 872 873
f 883 880 879
f 873 874 875
f 880 882 881
f 875 876 873
f 882 880 883
f 871 872 879
f 871 879 878
f 872 873 880
f 872 880 879
f 873 874 881
f 873 881 880
f 874 875 882
f 874 882 881
f 875 876 883
f 875 883 882
f 876 877 884
f 876 884 883
f 877 871 878
f 877 878 884
o building_54
usemtl material_G
v 1103.0000 -1814.0000 0.0000
v 1097.0000 -1885.0000 0.0000
v 1141.0000 -1886.0000 0.0000
v 1144.0000 -1818.0000 0.0000
v 1103.0000 -1814.0000 45.0000
v 1097.0000 -1885.0000 45.0000
v 1141.0000 -1886.0000 45.0000
v 1144.0000 -1818.0000 45.0000
f 885 886 887
f 889 891 890
f 887 888 885
f 891 889 892
f 885 886 890
f 885 890 889
f 886 887 891
f 886 891 890
f 887 888 892
f 887 892 891
f 888 885 889
f 888 889 892
o building_55
usemtl material_G
v 344.0000 -1904.0000 0.0000
v 345.0000 -2037.0000 0.0000
v 406.0000 -2040.0000 0.0000
v 408.0000 -1957.0000 0.0000
v 401.0000 -1905.0000 0.0000
v 370.0000 -1900.0000 0.0000
v 344.0000 -1904.0000 42.0000
v 345.0000 -2037.0000 42.0000
v 406.0000 -2040.0000 42.0000
v 408.0000 -1957.0000 42.0000
v 401.0000 -1905.0000 42.0000
v 370.0000 -1900.0000 42.0000
f 896 893 894
f 902 900 899
f 895 896 894
f 901 900 902
f 898 893 896
f 904 902 899
f 898 896 897
f 904 903 902
f 893 894 900
f 893 900 899
f 894 895 901
f 894 901 900
f 895 896 902
f 895 902 901
f 896 897 903
f 896 903 902
f 897 898 904
f 897 904 903
f 898 893 899
f 898 899 904
o building_56
usemtl material_B
v 1096.0000 -1960.0000 0.0000
v 1096.0000 -2026.0000 0.0000
v 1144.0000 -2031.0000 0.0000
v 1150.0000 -2006.0000 0.0000
v 1142.0000 -1959.0000 0.0000
v 1096.0000 -1960.0000 44.0000
v 1096.0000 -2026.0000 44.0000
v 1144.0000 -2031.0000 44.0000
v 1150.0000 -2006.0000 44.0000
v 1142.0000 -1959.0000 44.0000
f 905 906 908
f 910 913 911
f 905 908 909
f 910 914 913
f 908 906 907
f 913 912 911
f 905 906 911
f 905 911 910
f 906 907 912
f 906 912 911
f 907 908 913
f 907 913 912
f 908 909 914
f 908 914 913
f 909 905 910
f 909 910 914
