mtllib 8-3.mtl
o building_1
usemtl material_R
v 1328.0000 -0.0000 0.0000
v 1240.0000 -0.0000 0.0000
v 1239.0000 -113.0000 0.0000
v 1244.0000 -113.0000 0.0000
v 1242.0000 -2.0000 0.0000
v 1328.0000 -0.0000 193.0000
v 1240.0000 -0.0000 193.0000
v 1239.0000 -113.0000 193.0000
v 1244.0000 -113.0000 193.0000
v 1242.0000 -2.0000 193.0000
f 5 1 2
f 10 7 6
f 2 3 5
f 7 10 8
f 5 3 4
f 10 9 8
f 1 2 7
f 1 7 6
f 2 3 8
f 2 8 7
f 3 4 9
f 3 9 8
f 4 5 10
f 4 10 9
f 5 1 6
f 5 6 10
o building_2
usemtl material_B
v 1389.0000 -0.0000 0.0000
v 1672.0000 -1.0000 0.0000
v 1673.0000 -6.0000 0.0000
v 1392.0000 -9.0000 0.0000
v 1384.0000 -11.0000 0.0000
v 1383.0000 -20.0000 0.0000
v 1415.0000 -116.0000 0.0000
v 1430.0000 -130.0000 0.0000
v 1432.0000 -270.0000 0.0000
v 1448.0000 -295.0000 0.0000
v 1614.0000 -295.0000 0.0000
v 1630.0000 -289.0000 0.0000
v 1712.0000 -288.0000 0.0000
v 1698.0000 -61.0000 0.0000
v 1703.0000 -53.0000 0.0000
v 1694.0000 -14.0000 0.0000
v 1678.0000 -5.0000 0.0000
v 1690.0000 -0.0000 0.0000
v 1389.0000 -0.0000 85.0000
v 1672.0000 -1.0000 85.0000
v 1673.0000 -6.0000 85.0000
v 1392.0000 -9.0000 85.0000
v 1384.0000 -11.0000 85.0000
v 1383.0000 -20.0000 85.0000
v 1415.0000 -116.0000 85.0000
v 1430.0000 -130.0000 85.0000
v 1432.0000 -270.0000 85.0000
v 1448.0000 -295.0000 85.0000
v 1614.0000 -295.0000 85.0000
v 1630.0000 -289.0000 85.0000
v 1712.0000 -288.0000 85.0000
v 1698.0000 -61.0000 85.0000
v 1703.0000 -53.0000 85.0000
v 1694.0000 -14.0000 85.0000
v 1678.0000 -5.0000 85.0000
v 1690.0000 -0.0000 85.0000
f 17 18 14
f 35 32 36
f 14 16 17
f 32 35 34
f 15 16 14
f 33 32 34
f 22 23 24
f 40 42 41
f 24 18 22
f 42 40 36
f 13 18 24
f 31 42 36
f 14 18 12
f 32 30 36
f 12 18 13
f 30 31 36
f 12 28 11
f 30 29 46
f 27 28 12
f 45 30 46
f 12 13 27
f 30 45 31
f 13 24 26
f 31 44 42
f 26 24 25
f 44 43 42
f 27 13 26
f 45 44 31
f 19 20 21
f 37 39 38
f 22 18 21
f 40 39 36
f 21 18 19
f 39 37 36
f 11 12 30
f 11 30 29
f 12 13 31
f 12 31 30
f 13 14 32
f 13 32 31
f 14 15 33
f 14 33 32
f 15 16 34
f 15 34 33
f 16 17 35
f 16 35 34
f 17 18 36
f 17 36 35
f 18 19 37
f 18 37 36
f 19 20 38
f 19 38 37
f 20 21 39
f 20 39 38
f 21 22 40
f 21 40 39
f 22 23 41
f 22 41 40
f 23 24 42
f 23 42 41
f 24 25 43
f 24 43 42
f 25 26 44
f 25 44 43
f 26 27 45
f 26 45 44
f 27 28 46
f 27 46 45
f 28 11 29
f 28 29 46
o building_3
usemtl material_R
v 1758.0000 -0.0000 0.0000
v 1837.0000 -4.0000 0.0000
v 1767.0000 -9.0000 0.0000
v 1770.0000 -95.0000 0.0000
v 1845.0000 -96.0000 0.0000
v 1855.0000 -90.0000 0.0000
v 1856.0000 -45.0000 0.0000
v 1848.0000 -2.0000 0.0000
v 1864.0000 -0.0000 0.0000
v 1758.0000 -0.0000 42.0000
v 1837.0000 -4.0000 42.0000
v 1767.0000 -9.0000 42.0000
v 1770.0000 -95.0000 42.0000
v 1845.0000 -96.0000 42.0000
v 1855.0000 -90.0000 42.0000
v 1856.0000 -45.0000 42.0000
v 1848.0000 -2.0000 42.0000
v 1864.0000 -0.0000 42.0000
f 55 47 54
f 64 63 56
f 54 47 48
f 63 57 56
f 53 51 52
f 62 61 60
f 50 51 53
f 59 62 60
f 54 48 53
f 63 62 57
f 49 50 53
f 58 62 59
f 53 48 49
f 62 58 57
f 47 48 57
f 47 57 56
f 48 49 58
f 48 58 57
f 49 50 59
f 49 59 58
f 50 51 60
f 50 60 59
f 51 52 61
f 51 61 60
f 52 53 62
f 52 62 61
f 53 54 63
f 53 63 62
f 54 55 64
f 54 64 63
f 55 47 56
f 55 56 64
o building_4
usemtl material_B
v 1895.0000 -0.0000 0.0000
v 1902.0000 -2.0000 0.0000
v 1903.0000 -121.0000 0.0000
v 1909.0000 -134.0000 0.0000
v 1911.0000 -252.0000 0.0000
v 1918.0000 -280.0000 0.0000
v 1930.0000 -288.0000 0.0000
v 2045.0000 -288.0000 0.0000
v 2047.0000 -295.0000 0.0000
v 2047.0000 -0.0000 0.0000
v 1895.0000 -0.0000 127.0000
v 1902.0000 -2.0000 127.0000
v 1903.0000 -121.0000 127.0000
v 1909.0000 -134.0000 127.0000
v 1911.0000 -252.0000 127.0000
v 1918.0000 -280.0000 127.0000
v 1930.0000 -288.0000 127.0000
v 2045.0000 -288.0000 127.0000
v 2047.0000 -295.0000 127.0000
v 2047.0000 -0.0000 127.0000
f 74 65 66
f 84 76 75
f 73 74 72
f 83 82 84
f 72 74 68
f 82 78 84
f 68 74 67
f 78 77 84
f 67 74 66
f 77 76 84
f 69 70 71
f 79 81 80
f 72 68 69
f 82 79 78
f 71 72 69
f 81 79 82
f 65 66 76
f 65 76 75
f 66 67 77
f 66 77 76
f 67 68 78
f 67 78 77
f 68 69 79
f 68 79 78
f 69 70 80
f 69 80 79
f 70 71 81
f 70 81 80
f 71 72 82
f 71 82 81
f 72 73 83
f 72 83 82
f 73 74 84
f 73 84 83
f 74 65 75
f 74 75 84
o building_5
usemtl material_R
v 1256.0000 -9.0000 0.0000
v 1256.0000 -113.0000 0.0000
v 1269.0000 -120.0000 0.0000
v 1325.0000 -119.0000 0.0000
v 1328.0000 -11.0000 0.0000
v 1256.0000 -9.0000 85.0000
v 1256.0000 -113.0000 85.0000
v 1269.0000 -120.0000 85.0000
v 1325.0000 -119.0000 85.0000
v 1328.0000 -11.0000 85.0000
f 88 89 87
f 93 92 94
f 89 85 86
f 94 91 90
f 87 89 86
f 92 91 94
f 85 86 91
f 85 91 90
f 86 87 92
f 86 92 91
f 87 88 93
f 87 93 92
f 88 89 94
f 88 94 93
f 89 85 90
f 89 90 94
o building_6
usemtl material_B
v 936.0000 -30.0000 0.0000
v 996.0000 -167.0000 0.0000
v 1078.0000 -157.0000 0.0000
v 1014.0000 -13.0000 0.0000
v 979.0000 -15.0000 0.0000
v 936.0000 -30.0000 85.0000
v 996.0000 -167.0000 85.0000
v 1078.0000 -157.0000 85.0000
v 1014.0000 -13.0000 85.0000
v 979.0000 -15.0000 85.0000
f 96 97 98
f 101 103 102
f 99 95 96
f 104 101 100
f 96 98 99
f 101 104 103
f 95 96 101
f 95 101 100
f 96 97 102
f 96 102 101
f 97 98 103
f 97 103 102
f 98 99 104
f 98 104 103
f 99 95 100
f 99 100 104
o building_7
usemtl material_B
v 535.0000 -55.0000 0.0000
v 535.0000 -67.0000 0.0000
v 588.0000 -180.0000 0.0000
v 643.0000 -175.0000 0.0000
v 680.0000 -164.0000 0.0000
v 680.0000 -149.0000 0.0000
v 631.0000 -39.0000 0.0000
v 601.0000 -38.0000 0.0000
v 535.0000 -55.0000 42.0000
v 535.0000 -67.0000 42.0000
v 588.0000 -180.0000 42.0000
v 643.0000 -175.0000 42.0000
v 680.0000 -164.0000 42.0000
v 680.0000 -149.0000 42.0000
v 631.0000 -39.0000 42.0000
v 601.0000 -38.0000 42.0000
f 112 106 107
f 120 115 114
f 105 106 112
f 113 120 114
f 112 107 108
f 120 116 115
f 108 111 112
f 116 120 119
f 108 109 110
f 116 118 117
f 110 111 108
f 118 116 119
f 105 106 114
f 105 114 113
f 106 107 115
f 106 115 114
f 107 108 116
f 107 116 115
f 108 109 117
f 108 117 116
f 109 110 118
f 109 118 117
f 110 111 119
f 110 119 118
f 111 112 120
f 111 120 119
f 112 105 113
f 112 113 120
o building_8
usemtl material_G
v 325.0000 -127.0000 0.0000
v 322.0000 -167.0000 0.0000
v 328.0000 -188.0000 0.0000
v 370.0000 -185.0000 0.0000
v 390.0000 -192.0000 0.0000
v 488.0000 -192.0000 0.0000
v 497.0000 -185.0000 0.0000
v 504.0000 -133.0000 0.0000
v 496.0000 -121.0000 0.0000
v 330.0000 -120.0000 0.0000
v 325.0000 -127.0000 42.0000
v 322.0000 -167.0000 42.0000
v 328.0000 -188.0000 42.0000
v 370.0000 -185.0000 42.0000
v 390.0000 -192.0000 42.0000
v 488.0000 -192.0000 42.0000
v 497.0000 -185.0000 42.0000
v 504.0000 -133.0000 42.0000
v 496.0000 -121.0000 42.0000
v 330.0000 -120.0000 42.0000
f 125 130 124
f 135 134 140
f 121 122 124
f 131 134 132
f 124 130 121
f 134 131 140
f 129 130 125
f 139 135 140
f 126 128 129
f 136 139 138
f 129 125 126
f 139 136 135
f 124 122 123
f 134 133 132
f 127 128 126
f 137 136 138
f 121 122 132
f 121 132 131
f 122 123 133
f 122 133 132
f 123 124 134
f 123 134 133
f 124 125 135
f 124 135 134
f 125 126 136
f 125 136 135
f 126 127 137
f 126 137 136
f 127 128 138
f 127 138 137
f 128 129 139
f 128 139 138
f 129 130 140
f 129 140 139
f 130 121 131
f 130 131 140
o building_9
usemtl material_G
v 287.0000 -183.0000 0.0000
v 271.0000 -136.0000 0.0000
v 259.0000 -133.0000 0.0000
v 14.0000 -167.0000 0.0000
v 0.0000 -161.0000 0.0000
v 0.0000 -197.0000 0.0000
v 6.0000 -183.0000 0.0000
v 21.0000 -223.0000 0.0000
v 50.0000 -231.0000 0.0000
v 237.0000 -201.0000 0.0000
v 267.0000 -201.0000 0.0000
v 286.0000 -191.0000 0.0000
v 287.0000 -183.0000 255.0000
v 271.0000 -136.0000 255.0000
v 259.0000 -133.0000 255.0000
v 14.0000 -167.0000 255.0000
v 0.0000 -161.0000 255.0000
v 0.0000 -197.0000 255.0000
v 6.0000 -183.0000 255.0000
v 21.0000 -223.0000 255.0000
v 50.0000 -231.0000 255.0000
v 237.0000 -201.0000 255.0000
v 267.0000 -201.0000 255.0000
v 286.0000 -191.0000 255.0000
f 143 141 142
f 155 154 153
f 148 149 144
f 160 156 161
f 144 149 150
f 156 162 161
f 150 143 144
f 162 156 155
f 148 144 147
f 160 159 156
f 147 145 146
f 159 158 157
f 144 145 147
f 156 159 157
f 152 141 151
f 164 163 153
f 151 141 143
f 163 155 153
f 151 143 150
f 163 162 155
f 141 142 154
f 141 154 153
f 142 143 155
f 142 155 154
f 143 144 156
f 143 156 155
f 144 145 157
f 144 157 156
f 145 146 158
f 145 158 157
f 146 147 159
f 146 159 158
f 147 148 160
f 147 160 159
f 148 149 161
f 148 161 160
f 149 150 162
f 149 162 161
f 150 151 163
f 150 163 162
f 151 152 164
f 151 164 163
f 152 141 153
f 152 153 164
o building_10
usemtl material_B
v 1095.0000 -211.0000 0.0000
v 1084.0000 -193.0000 0.0000
v 1061.0000 -192.0000 0.0000
v 1033.0000 -199.0000 0.0000
v 1031.0000 -221.0000 0.0000
v 1042.0000 -226.0000 0.0000
v 1077.0000 -225.0000 0.0000
v 1095.0000 -211.0000 34.0000
v 1084.0000 -193.0000 34.0000
v 1061.0000 -192.0000 34.0000
v 1033.0000 -199.0000 34.0000
v 1031.0000 -221.0000 34.0000
v 1042.0000 -226.0000 34.0000
v 1077.0000 -225.0000 34.0000
f 171 165 166
f 178 173 172
f 166 167 171
f 173 178 174
f 171 167 170
f 178 177 174
f 168 169 170
f 175 177 176
f 170 167 168
f 177 175 174
f 165 166 173
f 165 173 172
f 166 167 174
f 166 174 173
f 167 168 175
f 167 175 174
f 168 169 176
f 168 176 175
f 169 170 177
f 169 177 176
f 170 171 178
f 170 178 177
f 171 165 172
f 171 172 178
o building_11
usemtl material_B
v 737.0000 -282.0000 0.0000
v 719.0000 -240.0000 0.0000
v 623.0000 -257.0000 0.0000
v 615.0000 -264.0000 0.0000
v 632.0000 -297.0000 0.0000
v 724.0000 -289.0000 0.0000
v 737.0000 -282.0000 46.0000
v 719.0000 -240.0000 46.0000
v 623.0000 -257.0000 46.0000
v 615.0000 -264.0000 46.0000
v 632.0000 -297.0000 46.0000
v 724.0000 -289.0000 46.0000
f 181 182 183
f 187 189 188
f 183 180 181
f 189 187 186
f 184 179 180
f 190 186 185
f 184 180 183
f 190 189 186
f 179 180 186
f 179 186 185
f 180 181 187
f 180 187 186
f 181 182 188
f 181 188 187
f 182 183 189
f 182 189 188
f 183 184 190
f 183 190 189
f 184 179 185
f 184 185 190
o building_12
usemtl material_B
v 1057.0000 -256.0000 0.0000
v 1073.0000 -313.0000 0.0000
v 1085.0000 -327.0000 0.0000
v 1113.0000 -328.0000 0.0000
v 1143.0000 -320.0000 0.0000
v 1144.0000 -305.0000 0.0000
v 1122.0000 -249.0000 0.0000
v 1085.0000 -248.0000 0.0000
v 1057.0000 -256.0000 42.0000
v 1073.0000 -313.0000 42.0000
v 1085.0000 -327.0000 42.0000
v 1113.0000 -328.0000 42.0000
v 1143.0000 -320.0000 42.0000
v 1144.0000 -305.0000 42.0000
v 1122.0000 -249.0000 42.0000
v 1085.0000 -248.0000 42.0000
f 195 196 194
f 203 202 204
f 194 196 197
f 202 205 204
f 192 194 197
f 200 205 202
f 197 198 192
f 205 200 206
f 193 194 192
f 201 200 202
f 198 191 192
f 206 200 199
f 191 192 200
f 191 200 199
f 192 193 201
f 192 201 200
f 193 194 202
f 193 202 201
f 194 195 203
f 194 203 202
f 195 196 204
f 195 204 203
f 196 197 205
f 196 205 204
f 197 198 206
f 197 206 205
f 198 191 199
f 198 199 206
o building_13
usemtl material_G
v 327.0000 -377.0000 0.0000
v 334.0000 -385.0000 0.0000
v 363.0000 -386.0000 0.0000
v 377.0000 -393.0000 0.0000
v 573.0000 -392.0000 0.0000
v 578.0000 -330.0000 0.0000
v 568.0000 -325.0000 0.0000
v 515.0000 -325.0000 0.0000
v 504.0000 -319.0000 0.0000
v 342.0000 -319.0000 0.0000
v 335.0000 -326.0000 0.0000
v 333.0000 -371.0000 0.0000
v 327.0000 -377.0000 127.0000
v 334.0000 -385.0000 127.0000
v 363.0000 -386.0000 127.0000
v 377.0000 -393.0000 127.0000
v 573.0000 -392.0000 127.0000
v 578.0000 -330.0000 127.0000
v 568.0000 -325.0000 127.0000
v 515.0000 -325.0000 127.0000
v 504.0000 -319.0000 127.0000
v 342.0000 -319.0000 127.0000
v 335.0000 -326.0000 127.0000
v 333.0000 -371.0000 127.0000
f 215 216 210
f 227 222 228
f 211 212 213
f 223 225 224
f 209 216 217
f 221 229 228
f 210 216 209
f 222 221 228
f 214 211 213
f 226 225 223
f 214 215 210
f 226 222 227
f 210 211 214
f 222 226 223
f 209 217 218
f 221 230 229
f 218 207 208
f 230 220 219
f 218 208 209
f 230 221 220
f 207 208 220
f 207 220 219
f 208 209 221
f 208 221 220
f 209 210 222
f 209 222 221
f 210 211 223
f 210 223 222
f 211 212 224
f 211 224 223
f 212 213 225
f 212 225 224
f 213 214 226
f 213 226 225
f 214 215 227
f 214 227 226
f 215 216 228
f 215 228 227
f 216 217 229
f 216 229 228
f 217 218 230
f 217 230 229
f 218 207 219
f 218 219 230
o building_14
usemtl material_G
v 1917.0000 -321.0000 0.0000
v 1911.0000 -333.0000 0.0000
v 1917.0000 -383.0000 0.0000
v 1923.0000 -391.0000 0.0000
v 1949.0000 -390.0000 0.0000
v 1952.0000 -328.0000 0.0000
v 1942.0000 -320.0000 0.0000
v 1917.0000 -321.0000 39.0000
v 1911.0000 -333.0000 39.0000
v 1917.0000 -383.0000 39.0000
v 1923.0000 -391.0000 39.0000
v 1949.0000 -390.0000 39.0000
v 1952.0000 -328.0000 39.0000
v 1942.0000 -320.0000 39.0000
f 236 232 233
f 243 240 239
f 237 232 236
f 244 243 239
f 231 232 237
f 238 244 239
f 235 236 233
f 242 240 243
f 233 234 235
f 240 242 241
f 231 232 239
f 231 239 238
f 232 233 240
f 232 240 239
f 233 234 241
f 233 241 240
f 234 235 242
f 234 242 241
f 235 236 243
f 235 243 242
f 236 237 244
f 236 244 243
f 237 231 238
f 237 238 244
o building_15
usemtl material_B
v 2026.0000 -319.0000 0.0000
v 2010.0000 -321.0000 0.0000
v 2006.0000 -333.0000 0.0000
v 2009.0000 -391.0000 0.0000
v 2033.0000 -390.0000 0.0000
v 2034.0000 -326.0000 0.0000
v 2026.0000 -319.0000 34.0000
v 2010.0000 -321.0000 34.0000
v 2006.0000 -333.0000 34.0000
v 2009.0000 -391.0000 34.0000
v 2033.0000 -390.0000 34.0000
v 2034.0000 -326.0000 34.0000
f 250 247 249
f 256 255 253
f 249 247 248
f 255 254 253
f 245 247 250
f 251 256 253
f 246 247 245
f 252 251 253
f 245 246 252
f 245 252 251
f 246 247 253
f 246 253 252
f 247 248 254
f 247 254 253
f 248 249 255
f 248 255 254
f 249 250 256
f 249 256 255
f 250 245 251
f 250 251 256
o building_16
usemtl material_B
v 664.0000 -339.0000 0.0000
v 663.0000 -351.0000 0.0000
v 746.0000 -526.0000 0.0000
v 848.0000 -511.0000 0.0000
v 847.0000 -495.0000 0.0000
v 766.0000 -327.0000 0.0000
v 718.0000 -328.0000 0.0000
v 664.0000 -339.0000 42.0000
v 663.0000 -351.0000 42.0000
v 746.0000 -526.0000 42.0000
v 848.0000 -511.0000 42.0000
v 847.0000 -495.0000 42.0000
v 766.0000 -327.0000 42.0000
v 718.0000 -328.0000 42.0000
f 263 258 259
f 270 266 265
f 259 262 263
f 266 270 269
f 257 258 263
f 264 270 265
f 259 260 261
f 266 268 267
f 261 262 259
f 268 266 269
f 257 258 265
f 257 265 264
f 258 259 266
f 258 266 265
f 259 260 267
f 259 267 266
f 260 261 268
f 260 268 267
f 261 262 269
f 261 269 268
f 262 263 270
f 262 270 269
f 263 257 264
f 263 264 270
o building_17
usemtl material_B
v 1581.0000 -336.0000 0.0000
v 1588.0000 -393.0000 0.0000
v 1868.0000 -392.0000 0.0000
v 1872.0000 -386.0000 0.0000
v 1872.0000 -336.0000 0.0000
v 1866.0000 -326.0000 0.0000
v 1590.0000 -326.0000 0.0000
v 1581.0000 -336.0000 127.0000
v 1588.0000 -393.0000 127.0000
v 1868.0000 -392.0000 127.0000
v 1872.0000 -386.0000 127.0000
v 1872.0000 -336.0000 127.0000
v 1866.0000 -326.0000 127.0000
v 1590.0000 -326.0000 127.0000
f 277 271 272
f 284 279 278
f 277 272 273
f 284 280 279
f 274 275 273
f 281 280 282
f 273 275 276
f 280 283 282
f 277 273 276
f 284 283 280
f 271 272 279
f 271 279 278
f 272 273 280
f 272 280 279
f 273 274 281
f 273 281 280
f 274 275 282
f 274 282 281
f 275 276 283
f 275 283 282
f 276 277 284
f 276 284 283
f 277 271 278
f 277 278 284
o building_18
usemtl material_B
v 270.0000 -357.0000 0.0000
v 262.0000 -337.0000 0.0000
v 212.0000 -335.0000 0.0000
v 199.0000 -341.0000 0.0000
v 25.0000 -342.0000 0.0000
v 13.0000 -348.0000 0.0000
v 14.0000 -403.0000 0.0000
v 18.0000 -410.0000 0.0000
v 268.0000 -407.0000 0.0000
v 273.0000 -387.0000 0.0000
v 266.0000 -366.0000 0.0000
v 270.0000 -357.0000 42.0000
v 262.0000 -337.0000 42.0000
v 212.0000 -335.0000 42.0000
v 199.0000 -341.0000 42.0000
v 25.0000 -342.0000 42.0000
v 13.0000 -348.0000 42.0000
v 14.0000 -403.0000 42.0000
v 18.0000 -410.0000 42.0000
v 268.0000 -407.0000 42.0000
v 273.0000 -387.0000 42.0000
v 266.0000 -366.0000 42.0000
f 289 292 288
f 300 299 303
f 289 290 291
f 300 302 301
f 291 292 289
f 302 300 303
f 288 292 293
f 299 304 303
f 293 294 295
f 304 306 305
f 295 288 293
f 306 304 299
f 285 286 295
f 296 306 297
f 287 288 295
f 298 306 299
f 295 286 287
f 306 298 297
f 285 286 297
f 285 297 296
f 286 287 298
f 286 298 297
f 287 288 299
f 287 299 298
f 288 289 300
f 288 300 299
f 289 290 301
f 289 301 300
f 290 291 302
f 290 302 301
f 291 292 303
f 291 303 302
f 292 293 304
f 292 304 303
f 293 294 305
f 293 305 304
f 294 295 306
f 294 306 305
f 295 285 296
f 295 296 306
o building_19
usemtl material_B
v 1088.0000 -368.0000 0.0000
v 1127.0000 -455.0000 0.0000
v 1161.0000 -487.0000 0.0000
v 1224.0000 -518.0000 0.0000
v 1296.0000 -529.0000 0.0000
v 1500.0000 -527.0000 0.0000
v 1512.0000 -514.0000 0.0000
v 1499.0000 -479.0000 0.0000
v 1481.0000 -464.0000 0.0000
v 1457.0000 -463.0000 0.0000
v 1439.0000 -470.0000 0.0000
v 1303.0000 -471.0000 0.0000
v 1242.0000 -460.0000 0.0000
v 1212.0000 -430.0000 0.0000
v 1176.0000 -360.0000 0.0000
v 1163.0000 -351.0000 0.0000
v 1088.0000 -368.0000 255.0000
v 1127.0000 -455.0000 255.0000
v 1161.0000 -487.0000 255.0000
v 1224.0000 -518.0000 255.0000
v 1296.0000 -529.0000 255.0000
v 1500.0000 -527.0000 255.0000
v 1512.0000 -514.0000 255.0000
v 1499.0000 -479.0000 255.0000
v 1481.0000 -464.0000 255.0000
v 1457.0000 -463.0000 255.0000
v 1439.0000 -470.0000 255.0000
v 1303.0000 -471.0000 255.0000
v 1242.0000 -460.0000 255.0000
v 1212.0000 -430.0000 255.0000
v 1176.0000 -360.0000 255.0000
v 1163.0000 -351.0000 255.0000
f 317 311 312
f 333 328 327
f 318 311 317
f 334 333 327
f 312 313 314
f 328 330 329
f 308 309 320
f 324 336 325
f 320 321 308
f 336 324 337
f 317 312 316
f 333 332 328
f 316 312 314
f 332 330 328
f 322 307 308
f 338 324 323
f 308 321 322
f 324 338 337
f 310 311 319
f 326 335 327
f 319 311 318
f 335 334 327
f 319 309 310
f 335 326 325
f 320 309 319
f 336 335 325
f 316 314 315
f 332 331 330
f 307 308 324
f 307 324 323
f 308 309 325
f 308 325 324
f 309 310 326
f 309 326 325
f 310 311 327
f 310 327 326
f 311 312 328
f 311 328 327
f 312 313 329
f 312 329 328
f 313 314 330
f 313 330 329
f 314 315 331
f 314 331 330
f 315 316 332
f 315 332 331
f 316 317 333
f 316 333 332
f 317 318 334
f 317 334 333
f 318 319 335
f 318 335 334
f 319 320 336
f 319 336 335
f 320 321 337
f 320 337 336
f 321 322 338
f 321 338 337
f 322 307 323
f 322 323 338
o building_20
usemtl material_B
v 1582.0000 -479.0000 0.0000
v 1586.0000 -521.0000 0.0000
v 1744.0000 -518.0000 0.0000
v 1744.0000 -482.0000 0.0000
v 1731.0000 -463.0000 0.0000
v 1635.0000 -463.0000 0.0000
v 1622.0000 -469.0000 0.0000
v 1586.0000 -470.0000 0.0000
v 1582.0000 -479.0000 255.0000
v 1586.0000 -521.0000 255.0000
v 1744.0000 -518.0000 255.0000
v 1744.0000 -482.0000 255.0000
v 1731.0000 -463.0000 255.0000
v 1635.0000 -463.0000 255.0000
v 1622.0000 -469.0000 255.0000
v 1586.0000 -470.0000 255.0000
f 344 340 341
f 352 349 348
f 345 339 340
f 353 348 347
f 345 340 344
f 353 352 348
f 346 339 345
f 354 353 347
f 341 342 343
f 349 351 350
f 344 341 343
f 352 351 349
f 339 340 348
f 339 348 347
f 340 341 349
f 340 349 348
f 341 342 350
f 341 350 349
f 342 343 351
f 342 351 350
f 343 344 352
f 343 352 351
f 344 345 353
f 344 353 352
f 345 346 354
f 345 354 353
f 346 339 347
f 346 347 354
o building_21
usemtl material_B
v 1814.0000 -522.0000 0.0000
v 1822.0000 -528.0000 0.0000
v 1854.0000 -522.0000 0.0000
v 2017.0000 -521.0000 0.0000
v 2025.0000 -513.0000 0.0000
v 2023.0000 -495.0000 0.0000
v 2011.0000 -488.0000 0.0000
v 1817.0000 -488.0000 0.0000
v 1814.0000 -522.0000 124.0000
v 1822.0000 -528.0000 124.0000
v 1854.0000 -522.0000 124.0000
v 2017.0000 -521.0000 124.0000
v 2025.0000 -513.0000 124.0000
v 2023.0000 -495.0000 124.0000
v 2011.0000 -488.0000 124.0000
v 1817.0000 -488.0000 124.0000
f 361 362 357
f 369 365 370
f 361 357 358
f 369 366 365
f 358 359 360
f 366 368 367
f 360 361 358
f 368 366 369
f 362 355 356
f 370 364 363
f 357 362 356
f 365 364 370
f 355 356 364
f 355 364 363
f 356 357 365
f 356 365 364
f 357 358 366
f 357 366 365
f 358 359 367
f 358 367 366
f 359 360 368
f 359 368 367
f 360 361 369
f 360 369 368
f 361 362 370
f 361 370 369
f 362 355 363
f 362 363 370
o building_22
usemtl material_B
v 679.0000 -511.0000 0.0000
v 665.0000 -503.0000 0.0000
v 399.0000 -504.0000 0.0000
v 390.0000 -518.0000 0.0000
v 390.0000 -570.0000 0.0000
v 398.0000 -578.0000 0.0000
v 676.0000 -579.0000 0.0000
v 681.0000 -571.0000 0.0000
v 679.0000 -511.0000 42.0000
v 665.0000 -503.0000 42.0000
v 399.0000 -504.0000 42.0000
v 390.0000 -518.0000 42.0000
v 390.0000 -570.0000 42.0000
v 398.0000 -578.0000 42.0000
v 676.0000 -579.0000 42.0000
v 681.0000 -571.0000 42.0000
f 376 372 373
f 384 381 380
f 372 378 371
f 380 379 386
f 374 375 376
f 382 384 383
f 376 373 374
f 384 382 381
f 377 378 372
f 385 380 386
f 377 372 376
f 385 384 380
f 371 372 380
f 371 380 379
f 372 373 381
f 372 381 380
f 373 374 382
f 373 382 381
f 374 375 383
f 374 383 382
f 375 376 384
f 375 384 383
f 376 377 385
f 376 385 384
f 377 378 386
f 377 386 385
f 378 371 379
f 378 379 386
o building_23
usemtl material_B
v 13.0000 -513.0000 0.0000
v 12.0000 -559.0000 0.0000
v 32.0000 -574.0000 0.0000
v 107.0000 -584.0000 0.0000
v 125.0000 -580.0000 0.0000
v 134.0000 -571.0000 0.0000
v 135.0000 -512.0000 0.0000
v 13.0000 -513.0000 42.0000
v 12.0000 -559.0000 42.0000
v 32.0000 -574.0000 42.0000
v 107.0000 -584.0000 42.0000
v 125.0000 -580.0000 42.0000
v 134.0000 -571.0000 42.0000
v 135.0000 -512.0000 42.0000
f 392 393 390
f 399 397 400
f 390 393 389
f 397 396 400
f 392 390 391
f 399 398 397
f 387 388 389
f 394 396 395
f 389 393 387
f 396 394 400
f 387 388 395
f 387 395 394
f 388 389 396
f 388 396 395
f 389 390 397
f 389 397 396
f 390 391 398
f 390 398 397
f 391 392 399
f 391 399 398
f 392 393 400
f 392 400 399
f 393 387 394
f 393 394 400
o building_24
usemtl material_B
v 175.0000 -514.0000 0.0000
v 175.0000 -551.0000 0.0000
v 185.0000 -576.0000 0.0000
v 265.0000 -584.0000 0.0000
v 296.0000 -571.0000 0.0000
v 294.0000 -511.0000 0.0000
v 196.0000 -509.0000 0.0000
v 175.0000 -514.0000 42.0000
v 175.0000 -551.0000 42.0000
v 185.0000 -576.0000 42.0000
v 265.0000 -584.0000 42.0000
v 296.0000 -571.0000 42.0000
v 294.0000 -511.0000 42.0000
v 196.0000 -509.0000 42.0000
f 404 405 406
f 411 413 412
f 406 407 404
f 413 411 414
f 401 402 407
f 408 414 409
f 407 402 403
f 414 410 409
f 404 407 403
f 411 410 414
f 401 402 409
f 401 409 408
f 402 403 410
f 402 410 409
f 403 404 411
f 403 411 410
f 404 405 412
f 404 412 411
f 405 406 413
f 405 413 412
f 406 407 414
f 406 414 413
f 407 401 408
f 407 408 414
o building_25
usemtl material_B
v 880.0000 -576.0000 0.0000
v 860.0000 -543.0000 0.0000
v 776.0000 -559.0000 0.0000
v 773.0000 -566.0000 0.0000
v 785.0000 -597.0000 0.0000
v 797.0000 -601.0000 0.0000
v 879.0000 -586.0000 0.0000
v 880.0000 -576.0000 44.0000
v 860.0000 -543.0000 44.0000
v 776.0000 -559.0000 44.0000
v 773.0000 -566.0000 44.0000
v 785.0000 -597.0000 44.0000
v 797.0000 -601.0000 44.0000
v 879.0000 -586.0000 44.0000
f 421 415 416
f 428 423 422
f 416 420 421
f 423 428 427
f 420 418 419
f 427 426 425
f 417 418 420
f 424 427 425
f 417 420 416
f 424 423 427
f 415 416 423
f 415 423 422
f 416 417 424
f 416 424 423
f 417 418 425
f 417 425 424
f 418 419 426
f 418 426 425
f 419 420 427
f 419 427 426
f 420 421 428
f 420 428 427
f 421 415 422
f 421 422 428
o building_26
usemtl material_R
v 1527.0000 -634.0000 0.0000
v 1539.0000 -648.0000 0.0000
v 1750.0000 -681.0000 0.0000
v 1768.0000 -680.0000 0.0000
v 1785.0000 -648.0000 0.0000
v 1784.0000 -638.0000 0.0000
v 1772.0000 -632.0000 0.0000
v 1553.0000 -592.0000 0.0000
v 1536.0000 -601.0000 0.0000
v 1527.0000 -634.0000 44.0000
v 1539.0000 -648.0000 44.0000
v 1750.0000 -681.0000 44.0000
v 1768.0000 -680.0000 44.0000
v 1785.0000 -648.0000 44.0000
v 1784.0000 -638.0000 44.0000
v 1772.0000 -632.0000 44.0000
v 1553.0000 -592.0000 44.0000
v 1536.0000 -601.0000 44.0000
f 431 436 430
f 440 439 445
f 437 429 430
f 446 439 438
f 430 436 437
f 439 446 445
f 435 436 431
f 444 440 445
f 435 433 434
f 444 443 442
f 432 433 435
f 441 444 442
f 435 431 432
f 444 441 440
f 429 430 439
f 429 439 438
f 430 431 440
f 430 440 439
f 431 432 441
f 431 441 440
f 432 433 442
f 432 442 441
f 433 434 443
f 433 443 442
f 434 435 444
f 434 444 443
f 435 436 445
f 435 445 444
f 436 437 446
f 436 446 445
f 437 429 438
f 437 438 446
o building_27
usemtl material_R
v 899.0000 -617.0000 0.0000
v 801.0000 -638.0000 0.0000
v 798.0000 -645.0000 0.0000
v 865.0000 -798.0000 0.0000
v 878.0000 -810.0000 0.0000
v 965.0000 -792.0000 0.0000
v 969.0000 -785.0000 0.0000
v 899.0000 -617.0000 127.0000
v 801.0000 -638.0000 127.0000
v 798.0000 -645.0000 127.0000
v 865.0000 -798.0000 127.0000
v 878.0000 -810.0000 127.0000
v 965.0000 -792.0000 127.0000
v 969.0000 -785.0000 127.0000
f 447 449 450
f 454 457 456
f 450 453 447
f 457 454 460
f 452 453 450
f 459 457 460
f 448 449 447
f 455 454 456
f 451 452 450
f 458 457 459
f 447 448 455
f 447 455 454
f 448 449 456
f 448 456 455
f 449 450 457
f 449 457 456
f 450 451 458
f 450 458 457
f 451 452 459
f 451 459 458
f 452 453 460
f 452 460 459
f 453 447 454
f 453 454 460
o building_28
usemtl material_B
v 1944.0000 -665.0000 0.0000
v 2005.0000 -671.0000 0.0000
v 2016.0000 -648.0000 0.0000
v 2007.0000 -641.0000 0.0000
v 1959.0000 -639.0000 0.0000
v 1944.0000 -655.0000 0.0000
v 1944.0000 -665.0000 29.0000
v 2005.0000 -671.0000 29.0000
v 2016.0000 -648.0000 29.0000
v 2007.0000 -641.0000 29.0000
v 1959.0000 -639.0000 29.0000
v 1944.0000 -655.0000 29.0000
f 465 466 461
f 471 467 472
f 461 462 465
f 467 471 468
f 462 463 464
f 468 470 469
f 465 462 464
f 471 470 468
f 461 462 468
f 461 468 467
f 462 463 469
f 462 469 468
f 463 464 470
f 463 470 469
f 464 465 471
f 464 471 470
f 465 466 472
f 465 472 471
f 466 461 467
f 466 467 472
o building_29
usemtl material_B
v 14.0000 -672.0000 0.0000
v 15.0000 -718.0000 0.0000
v 40.0000 -737.0000 0.0000
v 73.0000 -744.0000 0.0000
v 107.0000 -743.0000 0.0000
v 127.0000 -735.0000 0.0000
v 134.0000 -722.0000 0.0000
v 136.0000 -678.0000 0.0000
v 130.0000 -672.0000 0.0000
v 14.0000 -672.0000 42.0000
v 15.0000 -718.0000 42.0000
v 40.0000 -737.0000 42.0000
v 73.0000 -744.0000 42.0000
v 107.0000 -743.0000 42.0000
v 127.0000 -735.0000 42.0000
v 134.0000 -722.0000 42.0000
v 136.0000 -678.0000 42.0000
v 130.0000 -672.0000 42.0000
f 481 473 476
f 490 485 482
f 481 476 477
f 490 486 485
f 476 473 475
f 485 484 482
f 475 473 474
f 484 483 482
f 477 478 479
f 486 488 487
f 479 481 477
f 488 486 490
f 479 480 481
f 488 490 489
f 473 474 483
f 473 483 482
f 474 475 484
f 474 484 483
f 475 476 485
f 475 485 484
f 476 477 486
f 476 486 485
f 477 478 487
f 477 487 486
f 478 479 488
f 478 488 487
f 479 480 489
f 479 489 488
f 480 481 490
f 480 490 489
f 481 473 482
f 481 482 490
o building_30
usemtl material_G
v 180.0000 -674.0000 0.0000
v 178.0000 -705.0000 0.0000
v 184.0000 -727.0000 0.0000
v 193.0000 -734.0000 0.0000
v 228.0000 -739.0000 0.0000
v 296.0000 -735.0000 0.0000
v 294.0000 -672.0000 0.0000
v 197.0000 -669.0000 0.0000
v 180.0000 -674.0000 42.0000
v 178.0000 -705.0000 42.0000
v 184.0000 -727.0000 42.0000
v 193.0000 -734.0000 42.0000
v 228.0000 -739.0000 42.0000
v 296.0000 -735.0000 42.0000
v 294.0000 -672.0000 42.0000
v 197.0000 -669.0000 42.0000
f 498 492 495
f 506 503 500
f 495 496 497
f 503 505 504
f 497 498 495
f 505 503 506
f 491 492 498
f 499 506 500
f 495 492 494
f 503 502 500
f 494 492 493
f 502 501 500
f 491 492 500
f 491 500 499
f 492 493 501
f 492 501 500
f 493 494 502
f 493 502 501
f 494 495 503
f 494 503 502
f 495 496 504
f 495 504 503
f 496 497 505
f 496 505 504
f 497 498 506
f 497 506 505
f 498 491 499
f 498 499 506
o building_31
usemtl material_B
v 359.0000 -687.0000 0.0000
v 359.0000 -742.0000 0.0000
v 368.0000 -745.0000 0.0000
v 719.0000 -747.0000 0.0000
v 727.0000 -738.0000 0.0000
v 728.0000 -689.0000 0.0000
v 718.0000 -679.0000 0.0000
v 370.0000 -679.0000 0.0000
v 359.0000 -687.0000 42.0000
v 359.0000 -742.0000 42.0000
v 368.0000 -745.0000 42.0000
v 719.0000 -747.0000 42.0000
v 727.0000 -738.0000 42.0000
v 728.0000 -689.0000 42.0000
v 718.0000 -679.0000 42.0000
v 370.0000 -679.0000 42.0000
f 514 510 513
f 522 521 518
f 511 512 513
f 519 521 520
f 513 510 511
f 521 519 518
f 509 510 514
f 517 522 518
f 509 507 508
f 517 516 515
f 514 507 509
f 522 517 515
f 507 508 516
f 507 516 515
f 508 509 517
f 508 517 516
f 509 510 518
f 509 518 517
f 510 511 519
f 510 519 518
f 511 512 520
f 511 520 519
f 512 513 521
f 512 521 520
f 513 514 522
f 513 522 521
f 514 507 515
f 514 515 522
o building_32
usemtl material_G
v 1952.0000 -716.0000 0.0000
v 1954.0000 -734.0000 0.0000
v 1987.0000 -739.0000 0.0000
v 2000.0000 -732.0000 0.0000
v 1997.0000 -711.0000 0.0000
v 1968.0000 -709.0000 0.0000
v 1952.0000 -716.0000 38.0000
v 1954.0000 -734.0000 38.0000
v 1987.0000 -739.0000 38.0000
v 2000.0000 -732.0000 38.0000
v 1997.0000 -711.0000 38.0000
v 1968.0000 -709.0000 38.0000
f 525 526 527
f 531 533 532
f 527 528 525
f 533 531 534
f 528 523 524
f 534 530 529
f 525 528 524
f 531 530 534
f 523 524 530
f 523 530 529
f 524 525 531
f 524 531 530
f 525 526 532
f 525 532 531
f 526 527 533
f 526 533 532
f 527 528 534
f 527 534 533
f 528 523 529
f 528 529 534
o building_33
usemtl material_G
v 1943.0000 -789.0000 0.0000
v 1944.0000 -799.0000 0.0000
v 1974.0000 -800.0000 0.0000
v 1985.0000 -786.0000 0.0000
v 1975.0000 -776.0000 0.0000
v 1957.0000 -775.0000 0.0000
v 1943.0000 -789.0000 32.0000
v 1944.0000 -799.0000 32.0000
v 1974.0000 -800.0000 32.0000
v 1985.0000 -786.0000 32.0000
v 1975.0000 -776.0000 32.0000
v 1957.0000 -775.0000 32.0000
f 537 535 536
f 543 542 541
f 540 535 537
f 546 543 541
f 537 538 539
f 543 545 544
f 540 537 539
f 546 545 543
f 535 536 542
f 535 542 541
f 536 537 543
f 536 543 542
f 537 538 544
f 537 544 543
f 538 539 545
f 538 545 544
f 539 540 546
f 539 546 545
f 540 535 541
f 540 541 546
o building_34
usemtl material_B
v 1008.0000 -831.0000 0.0000
v 998.0000 -823.0000 0.0000
v 978.0000 -823.0000 0.0000
v 893.0000 -842.0000 0.0000
v 887.0000 -864.0000 0.0000
v 893.0000 -875.0000 0.0000
v 897.0000 -931.0000 0.0000
v 909.0000 -937.0000 0.0000
v 955.0000 -936.0000 0.0000
v 1007.0000 -905.0000 0.0000
v 1016.0000 -867.0000 0.0000
v 1008.0000 -831.0000 127.0000
v 998.0000 -823.0000 127.0000
v 978.0000 -823.0000 127.0000
v 893.0000 -842.0000 127.0000
v 887.0000 -864.0000 127.0000
v 893.0000 -875.0000 127.0000
v 897.0000 -931.0000 127.0000
v 909.0000 -937.0000 127.0000
v 955.0000 -936.0000 127.0000
v 1007.0000 -905.0000 127.0000
v 1016.0000 -867.0000 127.0000
f 549 557 547
f 560 558 568
f 547 548 549
f 558 560 559
f 552 554 555
f 563 566 565
f 553 554 552
f 564 563 565
f 552 555 549
f 563 560 566
f 550 551 552
f 561 563 562
f 549 550 552
f 560 563 561
f 556 557 549
f 567 560 568
f 549 555 556
f 560 567 566
f 547 548 559
f 547 559 558
f 548 549 560
f 548 560 559
f 549 550 561
f 549 561 560
f 550 551 562
f 550 562 561
f 551 552 563
f 551 563 562
f 552 553 564
f 552 564 563
f 553 554 565
f 553 565 564
f 554 555 566
f 554 566 565
f 555 556 567
f 555 567 566
f 556 557 568
f 556 568 567
f 557 547 558
f 557 558 568
o building_35
usemtl material_G
v 1935.0000 -831.0000 0.0000
v 1918.0000 -857.0000 0.0000
v 1919.0000 -865.0000 0.0000
v 1959.0000 -871.0000 0.0000
v 1968.0000 -839.0000 0.0000
v 1935.0000 -831.0000 255.0000
v 1918.0000 -857.0000 255.0000
v 1919.0000 -865.0000 255.0000
v 1959.0000 -871.0000 255.0000
v 1968.0000 -839.0000 255.0000
f 572 570 571
f 577 576 575
f 569 570 572
f 574 577 575
f 572 573 569
f 577 574 578
f 569 570 575
f 569 575 574
f 570 571 576
f 570 576 575
f 571 572 577
f 571 577 576
f 572 573 578
f 572 578 577
f 573 569 574
f 573 574 578
o building_36
usemtl material_B
v 837.0000 -849.0000 0.0000
v 666.0000 -855.0000 0.0000
v 662.0000 -867.0000 0.0000
v 669.0000 -887.0000 0.0000
v 665.0000 -908.0000 0.0000
v 670.0000 -927.0000 0.0000
v 838.0000 -927.0000 0.0000
v 837.0000 -849.0000 42.0000
v 666.0000 -855.0000 42.0000
v 662.0000 -867.0000 42.0000
v 669.0000 -887.0000 42.0000
v 665.0000 -908.0000 42.0000
v 670.0000 -927.0000 42.0000
v 838.0000 -927.0000 42.0000
f 582 585 579
f 589 586 592
f 580 581 582
f 587 589 588
f 582 579 580
f 589 587 586
f 584 585 582
f 591 589 592
f 584 582 583
f 591 590 589
f 579 580 587
f 579 587 586
f 580 581 588
f 580 588 587
f 581 582 589
f 581 589 588
f 582 583 590
f 582 590 589
f 583 584 591
f 583 591 590
f 584 585 592
f 584 592 591
f 585 579 586
f 585 586 592
o building_37
usemtl material_B
v 407.0000 -865.0000 0.0000
v 401.0000 -928.0000 0.0000
v 599.0000 -926.0000 0.0000
v 601.0000 -869.0000 0.0000
v 593.0000 -857.0000 0.0000
v 416.0000 -856.0000 0.0000
v 407.0000 -865.0000 127.0000
v 401.0000 -928.0000 127.0000
v 599.0000 -926.0000 127.0000
v 601.0000 -869.0000 127.0000
v 593.0000 -857.0000 127.0000
v 416.0000 -856.0000 127.0000
f 593 594 598
f 599 604 600
f 598 594 595
f 604 601 600
f 595 596 597
f 601 603 602
f 597 598 595
f 603 601 604
f 593 594 600
f 593 600 599
f 594 595 601
f 594 601 600
f 595 596 602
f 595 602 601
f 596 597 603
f 596 603 602
f 597 598 604
f 597 604 603
f 598 593 599
f 598 599 604
o building_38
usemtl material_B
v 247.0000 -865.0000 0.0000
v 19.0000 -862.0000 0.0000
v 12.0000 -867.0000 0.0000
v 13.0000 -920.0000 0.0000
v 24.0000 -926.0000 0.0000
v 240.0000 -926.0000 0.0000
v 249.0000 -910.0000 0.0000
v 247.0000 -865.0000 42.0000
v 19.0000 -862.0000 42.0000
v 12.0000 -867.0000 42.0000
v 13.0000 -920.0000 42.0000
v 24.0000 -926.0000 42.0000
v 240.0000 -926.0000 42.0000
v 249.0000 -910.0000 42.0000
f 610 611 605
f 617 612 618
f 609 607 608
f 616 615 614
f 609 610 606
f 616 613 617
f 606 610 605
f 613 612 617
f 606 607 609
f 613 616 614
f 605 606 613
f 605 613 612
f 606 607 614
f 606 614 613
f 607 608 615
f 607 615 614
f 608 609 616
f 608 616 615
f 609 610 617
f 609 617 616
f 610 611 618
f 610 618 617
f 611 605 612
f 611 612 618
o building_39
usemtl material_B
v 296.0000 -865.0000 0.0000
v 291.0000 -876.0000 0.0000
v 297.0000 -920.0000 0.0000
v 355.0000 -918.0000 0.0000
v 350.0000 -868.0000 0.0000
v 296.0000 -865.0000 43.0000
v 291.0000 -876.0000 43.0000
v 297.0000 -920.0000 43.0000
v 355.0000 -918.0000 43.0000
v 350.0000 -868.0000 43.0000
f 623 620 621
f 628 626 625
f 621 622 623
f 626 628 627
f 619 620 623
f 624 628 625
f 619 620 625
f 619 625 624
f 620 621 626
f 620 626 625
f 621 622 627
f 621 627 626
f 622 623 628
f 622 628 627
f 623 619 624
f 623 624 628
o building_40
usemtl material_G
v 1873.0000 -913.0000 0.0000
v 1874.0000 -958.0000 0.0000
v 1935.0000 -960.0000 0.0000
v 1937.0000 -924.0000 0.0000
v 1932.0000 -913.0000 0.0000
v 1873.0000 -913.0000 45.0000
v 1874.0000 -958.0000 45.0000
v 1935.0000 -960.0000 45.0000
v 1937.0000 -924.0000 45.0000
v 1932.0000 -913.0000 45.0000
f 633 629 632
f 638 637 634
f 632 629 630
f 637 635 634
f 631 632 630
f 636 635 637
f 629 630 635
f 629 635 634
f 630 631 636
f 630 636 635
f 631 632 637
f 631 637 636
f 632 633 638
f 632 638 637
f 633 629 634
f 633 634 638
o building_41
usemtl material_R
v 930.0000 -1032.0000 0.0000
v 935.0000 -1160.0000 0.0000
v 945.0000 -1176.0000 0.0000
v 1132.0000 -1174.0000 0.0000
v 1193.0000 -1168.0000 0.0000
v 1192.0000 -1038.0000 0.0000
v 1184.0000 -1025.0000 0.0000
v 948.0000 -1023.0000 0.0000
v 930.0000 -1032.0000 20.0000
v 935.0000 -1160.0000 20.0000
v 945.0000 -1176.0000 20.0000
v 1132.0000 -1174.0000 20.0000
v 1193.0000 -1168.0000 20.0000
v 1192.0000 -1038.0000 20.0000
v 1184.0000 -1025.0000 20.0000
v 948.0000 -1023.0000 20.0000
f 640 641 642
f 648 650 649
f 646 642 645
f 654 653 650
f 646 639 640
f 654 648 647
f 646 640 642
f 654 650 648
f 642 643 644
f 650 652 651
f 645 642 644
f 653 652 650
f 639 640 648
f 639 648 647
f 640 641 649
f 640 649 648
f 641 642 650
f 641 650 649
f 642 643 651
f 642 651 650
f 643 644 652
f 643 652 651
f 644 645 653
f 644 653 652
f 645 646 654
f 645 654 653
f 646 639 647
f 646 647 654
o building_42
usemtl material_R
v 835.0000 -1034.0000 0.0000
v 784.0000 -1040.0000 0.0000
v 782.0000 -1139.0000 0.0000
v 792.0000 -1151.0000 0.0000
v 849.0000 -1141.0000 0.0000
v 849.0000 -1042.0000 0.0000
v 835.0000 -1034.0000 200.0000
v 784.0000 -1040.0000 200.0000
v 782.0000 -1139.0000 200.0000
v 792.0000 -1151.0000 200.0000
v 849.0000 -1141.0000 200.0000
v 849.0000 -1042.0000 200.0000
f 660 657 659
f 666 665 663
f 656 657 660
f 662 666 663
f 660 655 656
f 666 662 661
f 659 657 658
f 665 664 663
f 655 656 662
f 655 662 661
f 656 657 663
f 656 663 662
f 657 658 664
f 657 664 663
f 658 659 665
f 658 665 664
f 659 660 666
f 659 666 665
f 660 655 661
f 660 661 666
o building_43
usemtl material_B
v 720.0000 -1041.0000 0.0000
v 483.0000 -1039.0000 0.0000
v 471.0000 -1050.0000 0.0000
v 471.0000 -1118.0000 0.0000
v 483.0000 -1129.0000 0.0000
v 719.0000 -1129.0000 0.0000
v 726.0000 -1089.0000 0.0000
v 720.0000 -1041.0000 220.0000
v 483.0000 -1039.0000 220.0000
v 471.0000 -1050.0000 220.0000
v 471.0000 -1118.0000 220.0000
v 483.0000 -1129.0000 220.0000
v 719.0000 -1129.0000 220.0000
v 726.0000 -1089.0000 220.0000
f 668 673 667
f 675 674 680
f 671 673 668
f 678 675 680
f 669 670 671
f 676 678 677
f 671 668 669
f 678 676 675
f 672 673 671
f 679 678 680
f 667 668 675
f 667 675 674
f 668 669 676
f 668 676 675
f 669 670 677
f 669 677 676
f 670 671 678
f 670 678 677
f 671 672 679
f 671 679 678
f 672 673 680
f 672 680 679
f 673 667 674
f 673 674 680
o building_44
usemtl material_B
v 305.0000 -1219.0000 0.0000
v 317.0000 -1240.0000 0.0000
v 442.0000 -1237.0000 0.0000
v 441.0000 -1215.0000 0.0000
v 432.0000 -1206.0000 0.0000
v 318.0000 -1206.0000 0.0000
v 305.0000 -1219.0000 20.0000
v 317.0000 -1240.0000 20.0000
v 442.0000 -1237.0000 20.0000
v 441.0000 -1215.0000 20.0000
v 432.0000 -1206.0000 20.0000
v 318.0000 -1206.0000 20.0000
f 685 683 684
f 691 690 689
f 682 683 685
f 688 691 689
f 686 681 682
f 692 688 687
f 682 685 686
f 688 692 691
f 681 682 688
f 681 688 687
f 682 683 689
f 682 689 688
f 683 684 690
f 683 690 689
f 684 685 691
f 684 691 690
f 685 686 692
f 685 692 691
f 686 681 687
f 686 687 692
o building_45
usemtl material_B
v 534.0000 -1217.0000 0.0000
v 534.0000 -1247.0000 0.0000
v 542.0000 -1256.0000 0.0000
v 670.0000 -1250.0000 0.0000
v 674.0000 -1241.0000 0.0000
v 672.0000 -1211.0000 0.0000
v 664.0000 -1206.0000 0.0000
v 544.0000 -1206.0000 0.0000
v 534.0000 -1217.0000 245.0000
v 534.0000 -1247.0000 245.0000
v 542.0000 -1256.0000 245.0000
v 670.0000 -1250.0000 245.0000
v 674.0000 -1241.0000 245.0000
v 672.0000 -1211.0000 245.0000
v 664.0000 -1206.0000 245.0000
v 544.0000 -1206.0000 245.0000
f 699 700 695
f 707 703 708
f 693 694 695
f 701 703 702
f 695 700 693
f 703 701 708
f 699 697 698
f 707 706 705
f 696 697 699
f 704 707 705
f 696 699 695
f 704 703 707
f 693 694 702
f 693 702 701
f 694 695 703
f 694 703 702
f 695 696 704
f 695 704 703
f 696 697 705
f 696 705 704
f 697 698 706
f 697 706 705
f 698 699 707
f 698 707 706
f 699 700 708
f 699 708 707
f 700 693 701
f 700 701 708
o building_46
usemtl material_R
v 880.0000 -1219.0000 0.0000
v 877.0000 -1213.0000 0.0000
v 794.0000 -1212.0000 0.0000
v 790.0000 -1221.0000 0.0000
v 803.0000 -1232.0000 0.0000
v 876.0000 -1229.0000 0.0000
v 880.0000 -1219.0000 20.0000
v 877.0000 -1213.0000 20.0000
v 794.0000 -1212.0000 20.0000
v 790.0000 -1221.0000 20.0000
v 803.0000 -1232.0000 20.0000
v 876.0000 -1229.0000 20.0000
f 711 712 713
f 717 719 718
f 711 713 710
f 717 716 719
f 714 709 710
f 720 716 715
f 710 713 714
f 716 720 719
f 709 710 716
f 709 716 715
f 710 711 717
f 710 717 716
f 711 712 718
f 711 718 717
f 712 713 719
f 712 719 718
f 713 714 720
f 713 720 719
f 714 709 715
f 714 715 720
o building_47
usemtl material_G
v 312.0000 -1281.0000 0.0000
v 313.0000 -1309.0000 0.0000
v 324.0000 -1321.0000 0.0000
v 435.0000 -1321.0000 0.0000
v 454.0000 -1313.0000 0.0000
v 449.0000 -1279.0000 0.0000
v 439.0000 -1271.0000 0.0000
v 316.0000 -1272.0000 0.0000
v 312.0000 -1281.0000 20.0000
v 313.0000 -1309.0000 20.0000
v 324.0000 -1321.0000 20.0000
v 435.0000 -1321.0000 20.0000
v 454.0000 -1313.0000 20.0000
v 449.0000 -1279.0000 20.0000
v 439.0000 -1271.0000 20.0000
v 316.0000 -1272.0000 20.0000
f 728 721 723
f 736 731 729
f 723 727 728
f 731 736 735
f 724 727 723
f 732 731 735
f 724 725 726
f 732 734 733
f 726 727 724
f 734 732 735
f 723 721 722
f 731 730 729
f 721 722 730
f 721 730 729
f 722 723 731
f 722 731 730
f 723 724 732
f 723 732 731
f 724 725 733
f 724 733 732
f 725 726 734
f 725 734 733
f 726 727 735
f 726 735 734
f 727 728 736
f 727 736 735
f 728 721 729
f 728 729 736
o building_48
usemtl material_B
v 1039.0000 -1304.0000 0.0000
v 1025.0000 -1296.0000 0.0000
v 932.0000 -1303.0000 0.0000
v 927.0000 -1307.0000 0.0000
v 928.0000 -1330.0000 0.0000
v 936.0000 -1351.0000 0.0000
v 1037.0000 -1345.0000 0.0000
v 1039.0000 -1304.0000 253.0000
v 1025.0000 -1296.0000 253.0000
v 932.0000 -1303.0000 253.0000
v 927.0000 -1307.0000 253.0000
v 928.0000 -1330.0000 253.0000
v 936.0000 -1351.0000 253.0000
v 1037.0000 -1345.0000 253.0000
f 743 737 738
f 750 745 744
f 738 742 743
f 745 750 749
f 739 742 738
f 746 745 749
f 739 740 741
f 746 748 747
f 741 742 739
f 748 746 749
f 737 738 745
f 737 745 744
f 738 739 746
f 738 746 745
f 739 740 747
f 739 747 746
f 740 741 748
f 740 748 747
f 741 742 749
f 741 749 748
f 742 743 750
f 742 750 749
f 743 737 744
f 743 744 750
o building_49
usemtl material_B
v 512.0000 -1310.0000 0.0000
v 511.0000 -1346.0000 0.0000
v 518.0000 -1354.0000 0.0000
v 658.0000 -1358.0000 0.0000
v 688.0000 -1350.0000 0.0000
v 688.0000 -1311.0000 0.0000
v 680.0000 -1302.0000 0.0000
v 526.0000 -1301.0000 0.0000
v 512.0000 -1310.0000 243.0000
v 511.0000 -1346.0000 243.0000
v 518.0000 -1354.0000 243.0000
v 658.0000 -1358.0000 243.0000
v 688.0000 -1350.0000 243.0000
v 688.0000 -1311.0000 243.0000
v 680.0000 -1302.0000 243.0000
v 526.0000 -1301.0000 243.0000
f 757 758 754
f 765 762 766
f 751 752 758
f 759 766 760
f 754 755 756
f 762 764 763
f 756 757 754
f 764 762 765
f 758 752 753
f 766 761 760
f 754 758 753
f 762 761 766
f 751 752 760
f 751 760 759
f 752 753 761
f 752 761 760
f 753 754 762
f 753 762 761
f 754 755 763
f 754 763 762
f 755 756 764
f 755 764 763
f 756 757 765
f 756 765 764
f 757 758 766
f 757 766 765
f 758 751 759
f 758 759 766
o building_50
usemtl material_B
v 911.0000 -1317.0000 0.0000
v 901.0000 -1310.0000 0.0000
v 786.0000 -1318.0000 0.0000
v 781.0000 -1335.0000 0.0000
v 784.0000 -1375.0000 0.0000
v 796.0000 -1383.0000 0.0000
v 911.0000 -1375.0000 0.0000
v 911.0000 -1317.0000 255.0000
v 901.0000 -1310.0000 255.0000
v 786.0000 -1318.0000 255.0000
v 781.0000 -1335.0000 255.0000
v 784.0000 -1375.0000 255.0000
v 796.0000 -1383.0000 255.0000
v 911.0000 -1375.0000 255.0000
f 772 773 768
f 779 775 780
f 769 770 772
f 776 779 777
f 772 768 769
f 779 776 775
f 768 773 767
f 775 774 780
f 772 770 771
f 779 778 777
f 767 768 775
f 767 775 774
f 768 769 776
f 768 776 775
f 769 770 777
f 769 777 776
f 770 771 778
f 770 778 777
f 771 772 779
f 771 779 778
f 772 773 780
f 772 780 779
f 773 767 774
f 773 774 780
o building_51
usemtl material_B
v 319.0000 -1393.0000 0.0000
v 319.0000 -1493.0000 0.0000
v 326.0000 -1503.0000 0.0000
v 456.0000 -1503.0000 0.0000
v 464.0000 -1498.0000 0.0000
v 469.0000 -1459.0000 0.0000
v 463.0000 -1392.0000 0.0000
v 319.0000 -1393.0000 220.0000
v 319.0000 -1493.0000 220.0000
v 326.0000 -1503.0000 220.0000
v 456.0000 -1503.0000 220.0000
v 464.0000 -1498.0000 220.0000
v 469.0000 -1459.0000 220.0000
v 463.0000 -1392.0000 220.0000
f 781 782 786
f 788 793 789
f 781 786 787
f 788 794 793
f 786 782 783
f 793 790 789
f 784 786 783
f 791 790 793
f 785 786 784
f 792 791 793
f 781 782 789
f 781 789 788
f 782 783 790
f 782 790 789
f 783 784 791
f 783 791 790
f 784 785 792
f 784 792 791
f 785 786 793
f 785 793 792
f 786 787 794
f 786 794 793
f 787 781 788
f 787 788 794
o building_52
usemtl material_B
v 1076.0000 -1408.0000 0.0000
v 1081.0000 -1471.0000 0.0000
v 1167.0000 -1470.0000 0.0000
v 1164.0000 -1400.0000 0.0000
v 1086.0000 -1400.0000 0.0000
v 1076.0000 -1408.0000 249.0000
v 1081.0000 -1471.0000 249.0000
v 1167.0000 -1470.0000 249.0000
v 1164.0000 -1400.0000 249.0000
v 1086.0000 -1400.0000 249.0000
f 799 795 796
f 804 801 800
f 796 797 799
f 801 804 802
f 799 797 798
f 804 803 802
f 795 796 801
f 795 801 800
f 796 797 802
f 796 802 801
f 797 798 803
f 797 803 802
f 798 799 804
f 798 804 803
f 799 795 800
f 799 800 804
o building_53
usemtl material_B
v 1024.0000 -1424.0000 0.0000
v 858.0000 -1424.0000 0.0000
v 840.0000 -1435.0000 0.0000
v 847.0000 -1491.0000 0.0000
v 853.0000 -1497.0000 0.0000
v 1022.0000 -1489.0000 0.0000
v 1027.0000 -1470.0000 0.0000
v 1024.0000 -1424.0000 244.0000
v 858.0000 -1424.0000 244.0000
v 840.0000 -1435.0000 244.0000
v 847.0000 -1491.0000 244.0000
v 853.0000 -1497.0000 244.0000
v 1022.0000 -1489.0000 244.0000
v 1027.0000 -1470.0000 244.0000
f 810 811 806
f 817 813 818
f 806 809 810
f 813 817 816
f 806 807 808
f 813 815 814
f 808 809 806
f 815 813 816
f 806 811 805
f 813 812 818
f 805 806 813
f 805 813 812
f 806 807 814
f 806 814 813
f 807 808 815
f 807 815 814
f 808 809 816
f 808 816 815
f 809 810 817
f 809 817 816
f 810 811 818
f 810 818 817
f 811 805 812
f 811 812 818
o building_54
usemtl material_B
v 513.0000 -1446.0000 0.0000
v 512.0000 -1491.0000 0.0000
v 523.0000 -1512.0000 0.0000
v 756.0000 -1513.0000 0.0000
v 784.0000 -1512.0000 0.0000
v 792.0000 -1506.0000 0.0000
v 792.0000 -1439.0000 0.0000
v 782.0000 -1430.0000 0.0000
v 526.0000 -1431.0000 0.0000
v 513.0000 -1446.0000 203.0000
v 512.0000 -1491.0000 203.0000
v 523.0000 -1512.0000 203.0000
v 756.0000 -1513.0000 203.0000
v 784.0000 -1512.0000 203.0000
v 792.0000 -1506.0000 203.0000
v 792.0000 -1439.0000 203.0000
v 782.0000 -1430.0000 203.0000
v 526.0000 -1431.0000 203.0000
f 822 824 825
f 831 834 833
f 825 826 822
f 834 831 835
f 823 824 822
f 832 831 833
f 822 826 827
f 831 836 835
f 821 822 827
f 830 836 831
f 819 820 827
f 828 836 829
f 827 820 821
f 836 830 829
f 819 820 829
f 819 829 828
f 820 821 830
f 820 830 829
f 821 822 831
f 821 831 830
f 822 823 832
f 822 832 831
f 823 824 833
f 823 833 832
f 824 825 834
f 824 834 833
f 825 826 835
f 825 835 834
f 826 827 836
f 826 836 835
f 827 819 828
f 827 828 836
o building_55
usemtl material_B
v 1151.0000 -1590.0000 0.0000
v 1143.0000 -1567.0000 0.0000
v 1134.0000 -1561.0000 0.0000
v 1116.0000 -1565.0000 0.0000
v 1113.0000 -1560.0000 0.0000
v 1096.0000 -1566.0000 0.0000
v 912.0000 -1569.0000 0.0000
v 899.0000 -1577.0000 0.0000
v 895.0000 -1588.0000 0.0000
v 905.0000 -1647.0000 0.0000
v 925.0000 -1641.0000 0.0000
v 1144.0000 -1638.0000 0.0000
v 1153.0000 -1626.0000 0.0000
v 1147.0000 -1602.0000 0.0000
v 1151.0000 -1590.0000 42.0000
v 1143.0000 -1567.0000 42.0000
v 1134.0000 -1561.0000 42.0000
v 1116.0000 -1565.0000 42.0000
v 1113.0000 -1560.0000 42.0000
v 1096.0000 -1566.0000 42.0000
v 912.0000 -1569.0000 42.0000
v 899.0000 -1577.0000 42.0000
v 895.0000 -1588.0000 42.0000
v 905.0000 -1647.0000 42.0000
v 925.0000 -1641.0000 42.0000
v 1144.0000 -1638.0000 42.0000
v 1153.0000 -1626.0000 42.0000
v 1147.0000 -1602.0000 42.0000
f 847 845 846
f 861 860 859
f 842 847 848
f 856 862 861
f 848 849 850
f 862 864 863
f 848 850 842
f 862 856 864
f 840 841 842
f 854 856 855
f 842 850 840
f 856 854 864
f 840 850 837
f 854 851 864
f 840 838 839
f 854 853 852
f 837 838 840
f 851 854 852
f 843 847 842
f 857 856 861
f 843 845 847
f 857 861 859
f 844 845 843
f 858 857 859
f 837 838 852
f 837 852 851
f 838 839 853
f 838 853 852
f 839 840 854
f 839 854 853
f 840 841 855
f 840 855 854
f 841 842 856
f 841 856 855
f 842 843 857
f 842 857 856
f 843 844 858
f 843 858 857
f 844 845 859
f 844 859 858
f 845 846 860
f 845 860 859
f 846 847 861
f 846 861 860
f 847 848 862
f 847 862 861
f 848 849 863
f 848 863 862
f 849 850 864
f 849 864 863
f 850 837 851
f 850 851 864
o building_56
usemtl material_G
v 838.0000 -1577.0000 0.0000
v 753.0000 -1574.0000 0.0000
v 425.0000 -1584.0000 0.0000
v 424.0000 -1664.0000 0.0000
v 429.0000 -1668.0000 0.0000
v 430.0000 -1793.0000 0.0000
v 438.0000 -1822.0000 0.0000
v 439.0000 -1964.0000 0.0000
v 445.0000 -1976.0000 0.0000
v 448.0000 -2045.0000 0.0000
v 441.0000 -2047.0000 0.0000
v 703.0000 -2047.0000 0.0000
v 626.0000 -2046.0000 0.0000
v 625.0000 -2040.0000 0.0000
v 863.0000 -2032.0000 0.0000
v 856.0000 -1700.0000 0.0000
v 848.0000 -1675.0000 0.0000
v 849.0000 -1593.0000 0.0000
v 838.0000 -1577.0000 255.0000
v 753.0000 -1574.0000 255.0000
v 425.0000 -1584.0000 255.0000
v 424.0000 -1664.0000 255.0000
v 429.0000 -1668.0000 255.0000
v 430.0000 -1793.0000 255.0000
v 438.0000 -1822.0000 255.0000
v 439.0000 -1964.0000 255.0000
v 445.0000 -1976.0000 255.0000
v 448.0000 -2045.0000 255.0000
v 441.0000 -2047.0000 255.0000
v 703.0000 -2047.0000 255.0000
v 626.0000 -2046.0000 255.0000
v 625.0000 -2040.0000 255.0000
v 863.0000 -2032.0000 255.0000
v 856.0000 -1700.0000 255.0000
v 848.0000 -1675.0000 255.0000
v 849.0000 -1593.0000 255.0000
f 880 866 871
f 898 889 884
f 871 878 880
f 889 898 896
f 865 866 882
f 883 900 884
f 867 868 869
f 885 887 886
f 869 866 867
f 887 885 884
f 876 879 880
f 894 898 897
f 880 878 876
f 898 894 896
f 877 875 876
f 895 894 893
f 882 866 881
f 900 899 884
f 881 866 880
f 899 898 884
f 871 866 870
f 889 888 884
f 870 866 869
f 888 887 884
f 874 878 873
f 892 891 896
f 874 875 877
f 892 895 893
f 877 878 874
f 895 892 896
f 872 878 871
f 890 889 896
f 873 878 872
f 891 890 896
f 865 866 884
f 865 884 883
f 866 867 885
f 866 885 884
f 867 868 886
f 867 886 885
f 868 869 887
f 868 887 886
f 869 870 888
f 869 888 887
f 870 871 889
f 870 889 888
f 871 872 890
f 871 890 889
f 872 873 891
f 872 891 890
f 873 874 892
f 873 892 891
f 874 875 893
f 874 893 892
f 875 876 894
f 875 894 893
f 876 877 895
f 876 895 894
f 877 878 896
f 877 896 895
f 878 879 897
f 878 897 896
f 879 880 898
f 879 898 897
f 880 881 899
f 880 899 898
f 881 882 900
f 881 900 899
f 882 865 883
f 882 883 900
o building_57
usemtl material_B
v 1153.0000 -1708.0000 0.0000
v 1144.0000 -1702.0000 0.0000
v 916.0000 -1709.0000 0.0000
v 909.0000 -1719.0000 0.0000
v 910.0000 -1766.0000 0.0000
v 1145.0000 -1769.0000 0.0000
v 1153.0000 -1765.0000 0.0000
v 1153.0000 -1708.0000 42.0000
v 1144.0000 -1702.0000 42.0000
v 916.0000 -1709.0000 42.0000
v 909.0000 -1719.0000 42.0000
v 910.0000 -1766.0000 42.0000
v 1145.0000 -1769.0000 42.0000
v 1153.0000 -1765.0000 42.0000
f 906 907 901
f 913 908 914
f 901 902 906
f 908 913 909
f 906 902 903
f 913 910 909
f 903 904 905
f 910 912 911
f 905 906 903
f 912 910 913
f 901 902 909
f 901 909 908
f 902 903 910
f 902 910 909
f 903 904 911
f 903 911 910
f 904 905 912
f 904 912 911
f 905 906 913
f 905 913 912
f 906 907 914
f 906 914 913
f 907 901 908
f 907 908 914
o building_58
usemtl material_G
v 1103.0000 -1814.0000 0.0000
v 1097.0000 -1885.0000 0.0000
v 1141.0000 -1886.0000 0.0000
v 1144.0000 -1818.0000 0.0000
v 1103.0000 -1814.0000 45.0000
v 1097.0000 -1885.0000 45.0000
v 1141.0000 -1886.0000 45.0000
v 1144.0000 -1818.0000 45.0000
f 915 916 917
f 919 921 920
f 917 918 915
f 921 919 922
f 915 916 920
f 915 920 919
f 916 917 921
f 916 921 920
f 917 918 922
f 917 922 921
f 918 915 919
f 918 919 922
o building_59
usemtl material_G
v 344.0000 -1904.0000 0.0000
v 345.0000 -2037.0000 0.0000
v 406.0000 -2040.0000 0.0000
v 408.0000 -1957.0000 0.0000
v 401.0000 -1905.0000 0.0000
v 370.0000 -1900.0000 0.0000
v 344.0000 -1904.0000 42.0000
v 345.0000 -2037.0000 42.0000
v 406.0000 -2040.0000 42.0000
v 408.0000 -1957.0000 42.0000
v 401.0000 -1905.0000 42.0000
v 370.0000 -1900.0000 42.0000
f 926 923 924
f 932 930 929
f 925 926 924
f 931 930 932
f 928 923 926
f 934 932 929
f 928 926 927
f 934 933 932
f 923 924 930
f 923 930 929
f 924 925 931
f 924 931 930
f 925 926 932
f 925 932 931
f 926 927 933
f 926 933 932
f 927 928 934
f 927 934 933
f 928 923 929
f 928 929 934
o building_60
usemtl material_B
v 1096.0000 -1960.0000 0.0000
v 1096.0000 -2026.0000 0.0000
v 1144.0000 -2031.0000 0.0000
v 1150.0000 -2006.0000 0.0000
v 1142.0000 -1959.0000 0.0000
v 1096.0000 -1960.0000 44.0000
v 1096.0000 -2026.0000 44.0000
v 1144.0000 -2031.0000 44.0000
v 1150.0000 -2006.0000 44.0000
v 1142.0000 -1959.0000 44.0000
f 939 935 938
f 944 943 940
f 938 935 936
f 943 941 940
f 937 938 936
f 942 941 943
f 935 936 941
f 935 941 940
f 936 937 942
f 936 942 941
f 937 938 943
f 937 943 942
f 938 939 944
f 938 944 943
f 939 935 940
f 939 940 944
